<mxfile host="app.diagrams.net" modified="2024-02-29T15:40:01.510Z" agent="Mozilla/5.0 (Windows NT 10.0; Win64; x64) AppleWebKit/537.36 (KHTML, like Gecko) Chrome/122.0.0.0 Safari/537.36" etag="syXpoumfwPggep629FBD" version="23.1.8" type="google">
  <diagram name="Page-1" id="dqlQAk03_nMIWkckE3K5">
    <mxGraphModel grid="0" page="1" gridSize="1" guides="1" tooltips="1" connect="1" arrows="1" fold="1" pageScale="1" pageWidth="827" pageHeight="1169" math="0" shadow="0">
      <root>
        <mxCell id="0" />
        <mxCell id="1" parent="0" />
        <mxCell id="MxBiDhXxKWsVpk-VD3PI-3" value="" style="edgeStyle=orthogonalEdgeStyle;rounded=0;orthogonalLoop=1;jettySize=auto;html=1;" edge="1" parent="1" source="MxBiDhXxKWsVpk-VD3PI-1" target="MxBiDhXxKWsVpk-VD3PI-2">
          <mxGeometry relative="1" as="geometry" />
        </mxCell>
        <mxCell id="MxBiDhXxKWsVpk-VD3PI-1" value="Début" style="rounded=1;whiteSpace=wrap;html=1;" vertex="1" parent="1">
          <mxGeometry x="294" y="50" width="120" height="60" as="geometry" />
        </mxCell>
        <mxCell id="MxBiDhXxKWsVpk-VD3PI-8" value="" style="edgeStyle=orthogonalEdgeStyle;rounded=0;orthogonalLoop=1;jettySize=auto;html=1;" edge="1" parent="1" source="MxBiDhXxKWsVpk-VD3PI-2" target="MxBiDhXxKWsVpk-VD3PI-7">
          <mxGeometry relative="1" as="geometry" />
        </mxCell>
        <mxCell id="MxBiDhXxKWsVpk-VD3PI-2" value="Initialisation&lt;br&gt;(GPIO, SPI, TIMER, UART)" style="whiteSpace=wrap;html=1;rounded=1;" vertex="1" parent="1">
          <mxGeometry x="294" y="190" width="120" height="60" as="geometry" />
        </mxCell>
        <mxCell id="MxBiDhXxKWsVpk-VD3PI-11" value="" style="edgeStyle=orthogonalEdgeStyle;rounded=0;orthogonalLoop=1;jettySize=auto;html=1;" edge="1" parent="1" source="MxBiDhXxKWsVpk-VD3PI-4" target="MxBiDhXxKWsVpk-VD3PI-10">
          <mxGeometry relative="1" as="geometry" />
        </mxCell>
        <mxCell id="MxBiDhXxKWsVpk-VD3PI-4" value="Communication" style="whiteSpace=wrap;html=1;rounded=1;" vertex="1" parent="1">
          <mxGeometry x="294" y="470" width="120" height="60" as="geometry" />
        </mxCell>
        <mxCell id="MxBiDhXxKWsVpk-VD3PI-9" value="" style="edgeStyle=orthogonalEdgeStyle;rounded=0;orthogonalLoop=1;jettySize=auto;html=1;" edge="1" parent="1" source="MxBiDhXxKWsVpk-VD3PI-7" target="MxBiDhXxKWsVpk-VD3PI-4">
          <mxGeometry relative="1" as="geometry" />
        </mxCell>
        <mxCell id="MxBiDhXxKWsVpk-VD3PI-20" style="edgeStyle=none;rounded=0;orthogonalLoop=1;jettySize=auto;html=1;exitX=0;exitY=0.5;exitDx=0;exitDy=0;endArrow=none;endFill=0;startArrow=classic;startFill=1;" edge="1" parent="1" source="MxBiDhXxKWsVpk-VD3PI-7">
          <mxGeometry relative="1" as="geometry">
            <mxPoint x="229" y="359" as="targetPoint" />
          </mxGeometry>
        </mxCell>
        <mxCell id="MxBiDhXxKWsVpk-VD3PI-7" value="While(true)" style="rhombus;whiteSpace=wrap;html=1;rounded=0&#xa;;" vertex="1" parent="1">
          <mxGeometry x="314" y="320" width="80" height="80" as="geometry" />
        </mxCell>
        <mxCell id="MxBiDhXxKWsVpk-VD3PI-13" value="" style="edgeStyle=orthogonalEdgeStyle;rounded=0;orthogonalLoop=1;jettySize=auto;html=1;" edge="1" parent="1" source="MxBiDhXxKWsVpk-VD3PI-10" target="MxBiDhXxKWsVpk-VD3PI-12">
          <mxGeometry relative="1" as="geometry" />
        </mxCell>
        <mxCell id="MxBiDhXxKWsVpk-VD3PI-10" value="Action sur les leds&amp;nbsp;" style="whiteSpace=wrap;html=1;rounded=1;" vertex="1" parent="1">
          <mxGeometry x="294" y="610" width="120" height="60" as="geometry" />
        </mxCell>
        <mxCell id="MxBiDhXxKWsVpk-VD3PI-15" value="" style="edgeStyle=orthogonalEdgeStyle;rounded=0;orthogonalLoop=1;jettySize=auto;html=1;" edge="1" parent="1" source="MxBiDhXxKWsVpk-VD3PI-12">
          <mxGeometry relative="1" as="geometry">
            <mxPoint x="354" y="890" as="targetPoint" />
          </mxGeometry>
        </mxCell>
        <mxCell id="MxBiDhXxKWsVpk-VD3PI-12" value="action sur le bras" style="whiteSpace=wrap;html=1;rounded=1;" vertex="1" parent="1">
          <mxGeometry x="294" y="750" width="120" height="60" as="geometry" />
        </mxCell>
        <mxCell id="MxBiDhXxKWsVpk-VD3PI-19" value="" style="edgeStyle=orthogonalEdgeStyle;rounded=0;orthogonalLoop=1;jettySize=auto;html=1;endArrow=none;endFill=0;" edge="1" parent="1">
          <mxGeometry relative="1" as="geometry">
            <mxPoint x="229" y="359" as="targetPoint" />
            <mxPoint x="294.0002700617292" y="777.8034782608697" as="sourcePoint" />
          </mxGeometry>
        </mxCell>
        <mxCell id="MxBiDhXxKWsVpk-VD3PI-21" value="FIN" style="whiteSpace=wrap;html=1;rounded=1;" vertex="1" parent="1">
          <mxGeometry x="294" y="892" width="120" height="60" as="geometry" />
        </mxCell>
        <mxCell id="MxBiDhXxKWsVpk-VD3PI-25" value="" style="edgeStyle=none;rounded=0;orthogonalLoop=1;jettySize=auto;html=1;" edge="1" parent="1" source="MxBiDhXxKWsVpk-VD3PI-23" target="MxBiDhXxKWsVpk-VD3PI-24">
          <mxGeometry relative="1" as="geometry" />
        </mxCell>
        <mxCell id="MxBiDhXxKWsVpk-VD3PI-23" value="Début communication" style="rounded=1;whiteSpace=wrap;html=1;" vertex="1" parent="1">
          <mxGeometry x="950" y="50" width="120" height="60" as="geometry" />
        </mxCell>
        <mxCell id="MxBiDhXxKWsVpk-VD3PI-27" value="" style="edgeStyle=none;rounded=0;orthogonalLoop=1;jettySize=auto;html=1;" edge="1" parent="1" source="MxBiDhXxKWsVpk-VD3PI-24" target="MxBiDhXxKWsVpk-VD3PI-26">
          <mxGeometry relative="1" as="geometry" />
        </mxCell>
        <mxCell id="MxBiDhXxKWsVpk-VD3PI-32" value="" style="edgeStyle=none;rounded=0;orthogonalLoop=1;jettySize=auto;html=1;entryX=0.5;entryY=0;entryDx=0;entryDy=0;" edge="1" parent="1" source="MxBiDhXxKWsVpk-VD3PI-24" target="fX_gD1YDC2tcjuMbH3MW-24">
          <mxGeometry relative="1" as="geometry">
            <mxPoint x="1010" y="825" as="targetPoint" />
          </mxGeometry>
        </mxCell>
        <mxCell id="MxBiDhXxKWsVpk-VD3PI-24" value="Si la stm32 &lt;br&gt;recoit sur le port uart2 RX &lt;br&gt;une trame de &lt;br&gt;12 octects" style="rhombus;whiteSpace=wrap;html=1;rounded=0&#xa;;" vertex="1" parent="1">
          <mxGeometry x="920" y="150" width="180" height="95" as="geometry" />
        </mxCell>
        <mxCell id="t8J576ol_tpwqE7DPTdl-13" value="" style="edgeStyle=orthogonalEdgeStyle;rounded=0;orthogonalLoop=1;jettySize=auto;html=1;" edge="1" parent="1" source="MxBiDhXxKWsVpk-VD3PI-26">
          <mxGeometry relative="1" as="geometry">
            <mxPoint x="1380.0000000000005" y="197.5" as="targetPoint" />
          </mxGeometry>
        </mxCell>
        <mxCell id="MxBiDhXxKWsVpk-VD3PI-26" value="Vérification de la trame&amp;nbsp;" style="rounded=1&#xa;;whiteSpace=wrap;html=1;" vertex="1" parent="1">
          <mxGeometry x="1180" y="167.5" width="120" height="60" as="geometry" />
        </mxCell>
        <mxCell id="MxBiDhXxKWsVpk-VD3PI-28" value="Oui" style="text;html=1;align=center;verticalAlign=middle;whiteSpace=wrap;rounded=0;" vertex="1" parent="1">
          <mxGeometry x="1105" y="175" width="60" height="30" as="geometry" />
        </mxCell>
        <mxCell id="MxBiDhXxKWsVpk-VD3PI-29" value="Non&amp;nbsp;" style="text;html=1;align=center;verticalAlign=middle;whiteSpace=wrap;rounded=0;" vertex="1" parent="1">
          <mxGeometry x="993.81" y="279" width="60" height="30" as="geometry" />
        </mxCell>
        <mxCell id="t8J576ol_tpwqE7DPTdl-40" value="" style="edgeStyle=orthogonalEdgeStyle;rounded=0;orthogonalLoop=1;jettySize=auto;html=1;exitX=0.5;exitY=1;exitDx=0;exitDy=0;" edge="1" parent="1" source="fX_gD1YDC2tcjuMbH3MW-24" target="t8J576ol_tpwqE7DPTdl-39">
          <mxGeometry relative="1" as="geometry">
            <mxPoint x="1010" y="910" as="sourcePoint" />
          </mxGeometry>
        </mxCell>
        <mxCell id="t8J576ol_tpwqE7DPTdl-5" value="" style="edgeStyle=orthogonalEdgeStyle;rounded=0;orthogonalLoop=1;jettySize=auto;html=1;entryX=0;entryY=0.5;entryDx=0;entryDy=0;" edge="1" parent="1" source="MxBiDhXxKWsVpk-VD3PI-36" target="t8J576ol_tpwqE7DPTdl-6">
          <mxGeometry relative="1" as="geometry">
            <mxPoint x="1580" y="200" as="targetPoint" />
          </mxGeometry>
        </mxCell>
        <mxCell id="MxBiDhXxKWsVpk-VD3PI-36" value="Si les &lt;br&gt;deux premier correspondent à &quot;0xA8 &amp;amp;&amp;amp;&lt;br&gt;&amp;nbsp;0x89&quot;" style="rhombus;whiteSpace=wrap;html=1;rounded=0&#xa;;" vertex="1" parent="1">
          <mxGeometry x="1380" y="148.75" width="120" height="97.5" as="geometry" />
        </mxCell>
        <mxCell id="t8J576ol_tpwqE7DPTdl-10" value="" style="edgeStyle=orthogonalEdgeStyle;rounded=0;orthogonalLoop=1;jettySize=auto;html=1;entryX=0;entryY=0.5;entryDx=0;entryDy=0;" edge="1" parent="1" source="MxBiDhXxKWsVpk-VD3PI-45" target="MxBiDhXxKWsVpk-VD3PI-47">
          <mxGeometry relative="1" as="geometry">
            <mxPoint x="2010" y="200" as="targetPoint" />
          </mxGeometry>
        </mxCell>
        <mxCell id="MxBiDhXxKWsVpk-VD3PI-45" value="Si le &lt;br&gt;troisieme&lt;br&gt;octet correspond &lt;br&gt;bien à l&#39;id du &lt;br&gt;robot &quot;0x00&quot; à &lt;br&gt;&quot;0xFF&quot;" style="rhombus;whiteSpace=wrap;html=1;rounded=0&#xa;;" vertex="1" parent="1">
          <mxGeometry x="1790" y="142.5" width="140" height="110" as="geometry" />
        </mxCell>
        <mxCell id="MxBiDhXxKWsVpk-VD3PI-61" value="" style="edgeStyle=none;rounded=0;orthogonalLoop=1;jettySize=auto;html=1;" edge="1" parent="1" source="fX_gD1YDC2tcjuMbH3MW-11" target="MxBiDhXxKWsVpk-VD3PI-60">
          <mxGeometry relative="1" as="geometry" />
        </mxCell>
        <mxCell id="MxBiDhXxKWsVpk-VD3PI-78" value="" style="edgeStyle=none;rounded=0;orthogonalLoop=1;jettySize=auto;html=1;" edge="1" parent="1" source="MxBiDhXxKWsVpk-VD3PI-47" target="MxBiDhXxKWsVpk-VD3PI-77">
          <mxGeometry relative="1" as="geometry" />
        </mxCell>
        <mxCell id="MxBiDhXxKWsVpk-VD3PI-47" value="Si le 4eme octet&amp;nbsp;&lt;br&gt;est égale à &quot;0x00&quot;&amp;nbsp;" style="rhombus;whiteSpace=wrap;html=1;rounded=0&#xa;;" vertex="1" parent="1">
          <mxGeometry x="2010" y="142.5" width="140" height="110" as="geometry" />
        </mxCell>
        <mxCell id="MxBiDhXxKWsVpk-VD3PI-49" value="Oui" style="text;html=1;align=center;verticalAlign=middle;whiteSpace=wrap;rounded=0;" vertex="1" parent="1">
          <mxGeometry x="1504.38" y="175" width="60" height="30" as="geometry" />
        </mxCell>
        <mxCell id="MxBiDhXxKWsVpk-VD3PI-50" value="Non&amp;nbsp;" style="text;html=1;align=center;verticalAlign=middle;whiteSpace=wrap;rounded=0;" vertex="1" parent="1">
          <mxGeometry x="1425" y="279" width="60" height="30" as="geometry" />
        </mxCell>
        <mxCell id="MxBiDhXxKWsVpk-VD3PI-53" value="" style="edgeStyle=none;rounded=0;orthogonalLoop=1;jettySize=auto;html=1;" edge="1" parent="1" source="MxBiDhXxKWsVpk-VD3PI-51" target="MxBiDhXxKWsVpk-VD3PI-52">
          <mxGeometry relative="1" as="geometry" />
        </mxCell>
        <mxCell id="MxBiDhXxKWsVpk-VD3PI-51" value="Début communication" style="rounded=1;whiteSpace=wrap;html=1;" vertex="1" parent="1">
          <mxGeometry x="650" y="50" width="120" height="60" as="geometry" />
        </mxCell>
        <mxCell id="MxBiDhXxKWsVpk-VD3PI-55" value="" style="edgeStyle=none;rounded=0;orthogonalLoop=1;jettySize=auto;html=1;" edge="1" parent="1" source="MxBiDhXxKWsVpk-VD3PI-52" target="MxBiDhXxKWsVpk-VD3PI-54">
          <mxGeometry relative="1" as="geometry" />
        </mxCell>
        <mxCell id="MxBiDhXxKWsVpk-VD3PI-52" value="Réception message&lt;div&gt;&lt;br&gt;&lt;/div&gt;" style="rounded=1;whiteSpace=wrap;html=1;verticalAlign=middle;" vertex="1" parent="1">
          <mxGeometry x="650" y="190" width="120" height="60" as="geometry" />
        </mxCell>
        <mxCell id="MxBiDhXxKWsVpk-VD3PI-57" value="" style="edgeStyle=none;rounded=0;orthogonalLoop=1;jettySize=auto;html=1;" edge="1" parent="1" source="MxBiDhXxKWsVpk-VD3PI-54" target="MxBiDhXxKWsVpk-VD3PI-56">
          <mxGeometry relative="1" as="geometry" />
        </mxCell>
        <mxCell id="MxBiDhXxKWsVpk-VD3PI-54" value="Traitement du message" style="whiteSpace=wrap;html=1;rounded=1;" vertex="1" parent="1">
          <mxGeometry x="650" y="330" width="120" height="60" as="geometry" />
        </mxCell>
        <mxCell id="MxBiDhXxKWsVpk-VD3PI-56" value="Transmision d&#39;une réponse&amp;nbsp;" style="whiteSpace=wrap;html=1;rounded=1;" vertex="1" parent="1">
          <mxGeometry x="650" y="470" width="120" height="60" as="geometry" />
        </mxCell>
        <mxCell id="MxBiDhXxKWsVpk-VD3PI-63" value="" style="edgeStyle=none;rounded=0;orthogonalLoop=1;jettySize=auto;html=1;" edge="1" parent="1" source="MxBiDhXxKWsVpk-VD3PI-60" target="MxBiDhXxKWsVpk-VD3PI-62">
          <mxGeometry relative="1" as="geometry" />
        </mxCell>
        <mxCell id="MxBiDhXxKWsVpk-VD3PI-81" value="" style="edgeStyle=none;rounded=0;orthogonalLoop=1;jettySize=auto;html=1;" edge="1" parent="1" source="MxBiDhXxKWsVpk-VD3PI-60" target="MxBiDhXxKWsVpk-VD3PI-80">
          <mxGeometry relative="1" as="geometry" />
        </mxCell>
        <mxCell id="MxBiDhXxKWsVpk-VD3PI-60" value="Si le 4eme octet&amp;nbsp;&lt;br&gt;est égale à &quot;0x01&quot;&amp;nbsp;" style="rhombus;whiteSpace=wrap;html=1;rounded=0&#xa;;" vertex="1" parent="1">
          <mxGeometry x="2010" y="338.75" width="140" height="110" as="geometry" />
        </mxCell>
        <mxCell id="MxBiDhXxKWsVpk-VD3PI-83" value="" style="edgeStyle=none;rounded=0;orthogonalLoop=1;jettySize=auto;html=1;" edge="1" parent="1" source="MxBiDhXxKWsVpk-VD3PI-62" target="MxBiDhXxKWsVpk-VD3PI-82">
          <mxGeometry relative="1" as="geometry" />
        </mxCell>
        <mxCell id="MxBiDhXxKWsVpk-VD3PI-62" value="Si le 4eme octet&amp;nbsp;&lt;br&gt;est égale à &quot;0x02&quot;&amp;nbsp;" style="rhombus;whiteSpace=wrap;html=1;rounded=0&#xa;;" vertex="1" parent="1">
          <mxGeometry x="2010" y="528.75" width="140" height="110" as="geometry" />
        </mxCell>
        <mxCell id="MxBiDhXxKWsVpk-VD3PI-68" value="Non&amp;nbsp;" style="text;html=1;align=center;verticalAlign=middle;whiteSpace=wrap;rounded=0;" vertex="1" parent="1">
          <mxGeometry x="2065" y="279" width="60" height="30" as="geometry" />
        </mxCell>
        <mxCell id="MxBiDhXxKWsVpk-VD3PI-69" value="Non&amp;nbsp;" style="text;html=1;align=center;verticalAlign=middle;whiteSpace=wrap;rounded=0;" vertex="1" parent="1">
          <mxGeometry x="2065" y="470" width="60" height="30" as="geometry" />
        </mxCell>
        <mxCell id="MxBiDhXxKWsVpk-VD3PI-70" value="Non&amp;nbsp;" style="text;html=1;align=center;verticalAlign=middle;whiteSpace=wrap;rounded=0;" vertex="1" parent="1">
          <mxGeometry x="2065" y="676" width="60" height="30" as="geometry" />
        </mxCell>
        <mxCell id="MxBiDhXxKWsVpk-VD3PI-71" value="Oui" style="text;html=1;align=center;verticalAlign=middle;whiteSpace=wrap;rounded=0;" vertex="1" parent="1">
          <mxGeometry x="2165" y="175" width="60" height="30" as="geometry" />
        </mxCell>
        <mxCell id="MxBiDhXxKWsVpk-VD3PI-72" value="Oui" style="text;html=1;align=center;verticalAlign=middle;whiteSpace=wrap;rounded=0;" vertex="1" parent="1">
          <mxGeometry x="2165" y="562" width="60" height="30" as="geometry" />
        </mxCell>
        <mxCell id="MxBiDhXxKWsVpk-VD3PI-73" value="Oui" style="text;html=1;align=center;verticalAlign=middle;whiteSpace=wrap;rounded=0;" vertex="1" parent="1">
          <mxGeometry x="2163" y="370" width="60" height="30" as="geometry" />
        </mxCell>
        <mxCell id="MxBiDhXxKWsVpk-VD3PI-77" value="actionneur&lt;br style=&quot;border-color: var(--border-color);&quot;&gt;&amp;nbsp;sélectionné&lt;br style=&quot;border-color: var(--border-color);&quot;&gt;&quot;Bras robot&quot;" style="whiteSpace=wrap;html=1;rounded=1;" vertex="1" parent="1">
          <mxGeometry x="2240" y="167.5" width="120" height="60" as="geometry" />
        </mxCell>
        <mxCell id="MxBiDhXxKWsVpk-VD3PI-80" value="actionneur&lt;br style=&quot;border-color: var(--border-color);&quot;&gt;&amp;nbsp;sélectionné&lt;br style=&quot;border-color: var(--border-color);&quot;&gt;&quot;Anneau de leds&quot;" style="whiteSpace=wrap;html=1;rounded=1&#xa;;" vertex="1" parent="1">
          <mxGeometry x="2240" y="363.75" width="120" height="60" as="geometry" />
        </mxCell>
        <mxCell id="MxBiDhXxKWsVpk-VD3PI-82" value="actionneur&lt;br style=&quot;border-color: var(--border-color);&quot;&gt;&amp;nbsp;sélectionné&lt;br style=&quot;border-color: var(--border-color);&quot;&gt;&quot;Ecran&quot;" style="whiteSpace=wrap;html=1;rounded=1;" vertex="1" parent="1">
          <mxGeometry x="2240" y="553.75" width="120" height="60" as="geometry" />
        </mxCell>
        <mxCell id="MxBiDhXxKWsVpk-VD3PI-85" value="" style="endArrow=none;html=1;rounded=0;" edge="1" parent="1">
          <mxGeometry width="50" height="50" relative="1" as="geometry">
            <mxPoint x="2360" y="197.08000000000013" as="sourcePoint" />
            <mxPoint x="2420" y="197.08000000000013" as="targetPoint" />
          </mxGeometry>
        </mxCell>
        <mxCell id="MxBiDhXxKWsVpk-VD3PI-86" value="" style="endArrow=none;html=1;rounded=0;endFill=0;startArrow=none;startFill=0;" edge="1" parent="1">
          <mxGeometry width="50" height="50" relative="1" as="geometry">
            <mxPoint x="2600" y="760" as="sourcePoint" />
            <mxPoint x="2600" y="197" as="targetPoint" />
          </mxGeometry>
        </mxCell>
        <mxCell id="MxBiDhXxKWsVpk-VD3PI-88" value="" style="endArrow=none;html=1;rounded=0;" edge="1" parent="1">
          <mxGeometry width="50" height="50" relative="1" as="geometry">
            <mxPoint x="2360" y="583.3900000000001" as="sourcePoint" />
            <mxPoint x="2420" y="583.75" as="targetPoint" />
          </mxGeometry>
        </mxCell>
        <mxCell id="MxBiDhXxKWsVpk-VD3PI-89" value="" style="endArrow=none;html=1;rounded=0;" edge="1" parent="1">
          <mxGeometry width="50" height="50" relative="1" as="geometry">
            <mxPoint x="2360" y="393.3899999999999" as="sourcePoint" />
            <mxPoint x="2420" y="393.3899999999999" as="targetPoint" />
          </mxGeometry>
        </mxCell>
        <mxCell id="t8J576ol_tpwqE7DPTdl-7" value="" style="edgeStyle=orthogonalEdgeStyle;rounded=0;orthogonalLoop=1;jettySize=auto;html=1;" edge="1" parent="1" source="t8J576ol_tpwqE7DPTdl-6" target="MxBiDhXxKWsVpk-VD3PI-45">
          <mxGeometry relative="1" as="geometry" />
        </mxCell>
        <mxCell id="t8J576ol_tpwqE7DPTdl-6" value="Si le &lt;br&gt;troisieme&lt;br&gt;octet correspond &lt;br&gt;bien à l&#39;id du &lt;br&gt;robot &quot;0x00&quot; à &lt;br&gt;&quot;0xFF&quot;" style="rhombus;whiteSpace=wrap;html=1;rounded=0&#xa;;" vertex="1" parent="1">
          <mxGeometry x="1580" y="142.5" width="140" height="110" as="geometry" />
        </mxCell>
        <mxCell id="t8J576ol_tpwqE7DPTdl-8" value="Oui" style="text;html=1;align=center;verticalAlign=middle;whiteSpace=wrap;rounded=0;" vertex="1" parent="1">
          <mxGeometry x="1720" y="175" width="60" height="30" as="geometry" />
        </mxCell>
        <mxCell id="t8J576ol_tpwqE7DPTdl-11" value="Non" style="text;html=1;align=center;verticalAlign=middle;whiteSpace=wrap;rounded=0;" vertex="1" parent="1">
          <mxGeometry x="1632" y="279" width="60" height="30" as="geometry" />
        </mxCell>
        <mxCell id="t8J576ol_tpwqE7DPTdl-17" value="" style="endArrow=none;html=1;rounded=0;entryX=0.5;entryY=1;entryDx=0;entryDy=0;" edge="1" parent="1" target="MxBiDhXxKWsVpk-VD3PI-36">
          <mxGeometry width="50" height="50" relative="1" as="geometry">
            <mxPoint x="1440" y="760" as="sourcePoint" />
            <mxPoint x="1470" y="340" as="targetPoint" />
          </mxGeometry>
        </mxCell>
        <mxCell id="t8J576ol_tpwqE7DPTdl-18" value="" style="endArrow=none;html=1;rounded=0;entryX=0.5;entryY=1;entryDx=0;entryDy=0;" edge="1" parent="1">
          <mxGeometry width="50" height="50" relative="1" as="geometry">
            <mxPoint x="1860" y="760" as="sourcePoint" />
            <mxPoint x="1859.6399999999999" y="252.5" as="targetPoint" />
          </mxGeometry>
        </mxCell>
        <mxCell id="t8J576ol_tpwqE7DPTdl-19" value="" style="endArrow=none;html=1;rounded=0;entryX=0.5;entryY=1;entryDx=0;entryDy=0;" edge="1" parent="1" source="fX_gD1YDC2tcjuMbH3MW-8">
          <mxGeometry width="50" height="50" relative="1" as="geometry">
            <mxPoint x="1645" y="760" as="sourcePoint" />
            <mxPoint x="1650" y="252.5" as="targetPoint" />
          </mxGeometry>
        </mxCell>
        <mxCell id="t8J576ol_tpwqE7DPTdl-24" value="Non&amp;nbsp;" style="text;html=1;align=center;verticalAlign=middle;whiteSpace=wrap;rounded=0;" vertex="1" parent="1">
          <mxGeometry x="1844" y="279" width="60" height="30" as="geometry" />
        </mxCell>
        <mxCell id="t8J576ol_tpwqE7DPTdl-26" value="Fonction bras robot" style="whiteSpace=wrap;html=1;rounded=1;" vertex="1" parent="1">
          <mxGeometry x="2420" y="167.5" width="120" height="60" as="geometry" />
        </mxCell>
        <mxCell id="t8J576ol_tpwqE7DPTdl-27" value="" style="endArrow=none;html=1;rounded=0;" edge="1" parent="1">
          <mxGeometry width="50" height="50" relative="1" as="geometry">
            <mxPoint x="2540" y="197.08000000000013" as="sourcePoint" />
            <mxPoint x="2600" y="197.08000000000013" as="targetPoint" />
          </mxGeometry>
        </mxCell>
        <mxCell id="t8J576ol_tpwqE7DPTdl-28" value="Fonction anneau de leds" style="whiteSpace=wrap;html=1;rounded=1&#xa;;" vertex="1" parent="1">
          <mxGeometry x="2420" y="363.75" width="120" height="60" as="geometry" />
        </mxCell>
        <mxCell id="t8J576ol_tpwqE7DPTdl-29" value="" style="endArrow=none;html=1;rounded=0;" edge="1" parent="1">
          <mxGeometry width="50" height="50" relative="1" as="geometry">
            <mxPoint x="2540" y="393.3899999999999" as="sourcePoint" />
            <mxPoint x="2600" y="393.3899999999999" as="targetPoint" />
          </mxGeometry>
        </mxCell>
        <mxCell id="t8J576ol_tpwqE7DPTdl-30" value="Fonction Ecran" style="whiteSpace=wrap;html=1;rounded=1;" vertex="1" parent="1">
          <mxGeometry x="2420" y="555" width="120" height="60" as="geometry" />
        </mxCell>
        <mxCell id="t8J576ol_tpwqE7DPTdl-31" value="" style="endArrow=none;html=1;rounded=0;" edge="1" parent="1">
          <mxGeometry width="50" height="50" relative="1" as="geometry">
            <mxPoint x="2540" y="584.6400000000001" as="sourcePoint" />
            <mxPoint x="2600" y="585" as="targetPoint" />
          </mxGeometry>
        </mxCell>
        <mxCell id="t8J576ol_tpwqE7DPTdl-34" value="" style="edgeStyle=orthogonalEdgeStyle;rounded=0;orthogonalLoop=1;jettySize=auto;html=1;" edge="1" parent="1" source="t8J576ol_tpwqE7DPTdl-32" target="t8J576ol_tpwqE7DPTdl-33">
          <mxGeometry relative="1" as="geometry" />
        </mxCell>
        <mxCell id="t8J576ol_tpwqE7DPTdl-32" value="Début de actions sur les leds" style="whiteSpace=wrap;html=1;rounded=1;" vertex="1" parent="1">
          <mxGeometry x="950" y="1175" width="120" height="60" as="geometry" />
        </mxCell>
        <mxCell id="t8J576ol_tpwqE7DPTdl-46" value="" style="edgeStyle=orthogonalEdgeStyle;rounded=0;orthogonalLoop=1;jettySize=auto;html=1;entryX=0;entryY=0.5;entryDx=0;entryDy=0;" edge="1" parent="1" source="t8J576ol_tpwqE7DPTdl-33" target="t8J576ol_tpwqE7DPTdl-77">
          <mxGeometry relative="1" as="geometry">
            <mxPoint x="1170" y="1346.8695652173915" as="targetPoint" />
          </mxGeometry>
        </mxCell>
        <mxCell id="fX_gD1YDC2tcjuMbH3MW-18" value="OUI" style="edgeLabel;html=1;align=center;verticalAlign=middle;resizable=0;points=[];" connectable="0" vertex="1" parent="t8J576ol_tpwqE7DPTdl-46">
          <mxGeometry x="-0.1036" relative="1" as="geometry">
            <mxPoint as="offset" />
          </mxGeometry>
        </mxCell>
        <mxCell id="t8J576ol_tpwqE7DPTdl-93" value="" style="edgeStyle=orthogonalEdgeStyle;rounded=0;orthogonalLoop=1;jettySize=auto;html=1;endArrow=none;endFill=0;" edge="1" parent="1" source="fX_gD1YDC2tcjuMbH3MW-16">
          <mxGeometry relative="1" as="geometry">
            <mxPoint x="1010" y="2080" as="targetPoint" />
          </mxGeometry>
        </mxCell>
        <mxCell id="t8J576ol_tpwqE7DPTdl-33" value="Si &lt;br&gt;l&#39;actionneur &lt;br&gt;sélectionner est &lt;br&gt;Anneau de &lt;br&gt;LEDs" style="rhombus;whiteSpace=wrap;html=1;rounded=0;" vertex="1" parent="1">
          <mxGeometry x="942.19" y="1300" width="135.62" height="95" as="geometry" />
        </mxCell>
        <mxCell id="t8J576ol_tpwqE7DPTdl-36" value="" style="endArrow=none;html=1;rounded=0;" edge="1" parent="1">
          <mxGeometry width="50" height="50" relative="1" as="geometry">
            <mxPoint x="1010" y="760" as="sourcePoint" />
            <mxPoint x="2600" y="760" as="targetPoint" />
          </mxGeometry>
        </mxCell>
        <mxCell id="t8J576ol_tpwqE7DPTdl-39" value="Fin de communication" style="whiteSpace=wrap;html=1;rounded=1&#xa;;" vertex="1" parent="1">
          <mxGeometry x="950" y="1002.5" width="120" height="60" as="geometry" />
        </mxCell>
        <mxCell id="t8J576ol_tpwqE7DPTdl-41" value="" style="endArrow=none;html=1;rounded=0;entryX=0.5;entryY=1;entryDx=0;entryDy=0;" edge="1" parent="1" source="fX_gD1YDC2tcjuMbH3MW-14" target="MxBiDhXxKWsVpk-VD3PI-62">
          <mxGeometry width="50" height="50" relative="1" as="geometry">
            <mxPoint x="2080" y="760" as="sourcePoint" />
            <mxPoint x="2030" y="655" as="targetPoint" />
          </mxGeometry>
        </mxCell>
        <mxCell id="t8J576ol_tpwqE7DPTdl-49" value="" style="edgeStyle=orthogonalEdgeStyle;rounded=0;orthogonalLoop=1;jettySize=auto;html=1;exitX=1;exitY=0.5;exitDx=0;exitDy=0;" edge="1" parent="1" source="t8J576ol_tpwqE7DPTdl-77" target="t8J576ol_tpwqE7DPTdl-48">
          <mxGeometry relative="1" as="geometry">
            <mxPoint x="1290" y="1346.8695652173915" as="sourcePoint" />
          </mxGeometry>
        </mxCell>
        <mxCell id="t8J576ol_tpwqE7DPTdl-51" value="" style="edgeStyle=orthogonalEdgeStyle;rounded=0;orthogonalLoop=1;jettySize=auto;html=1;" edge="1" parent="1" source="t8J576ol_tpwqE7DPTdl-48" target="t8J576ol_tpwqE7DPTdl-50">
          <mxGeometry relative="1" as="geometry" />
        </mxCell>
        <mxCell id="t8J576ol_tpwqE7DPTdl-63" value="" style="edgeStyle=orthogonalEdgeStyle;rounded=0;orthogonalLoop=1;jettySize=auto;html=1;" edge="1" parent="1" source="t8J576ol_tpwqE7DPTdl-48" target="t8J576ol_tpwqE7DPTdl-61">
          <mxGeometry relative="1" as="geometry" />
        </mxCell>
        <mxCell id="t8J576ol_tpwqE7DPTdl-48" value="Si &lt;br&gt;L&#39;octet 5 est&lt;br&gt;&quot;0x00&quot;" style="rhombus;whiteSpace=wrap;html=1;rounded=0;" vertex="1" parent="1">
          <mxGeometry x="1387.81" y="1308.75" width="104.38" height="77.5" as="geometry" />
        </mxCell>
        <mxCell id="t8J576ol_tpwqE7DPTdl-53" value="" style="edgeStyle=orthogonalEdgeStyle;rounded=0;orthogonalLoop=1;jettySize=auto;html=1;" edge="1" parent="1" source="t8J576ol_tpwqE7DPTdl-50" target="t8J576ol_tpwqE7DPTdl-52">
          <mxGeometry relative="1" as="geometry" />
        </mxCell>
        <mxCell id="t8J576ol_tpwqE7DPTdl-58" value="" style="edgeStyle=orthogonalEdgeStyle;rounded=0;orthogonalLoop=1;jettySize=auto;html=1;" edge="1" parent="1" source="t8J576ol_tpwqE7DPTdl-50" target="t8J576ol_tpwqE7DPTdl-57">
          <mxGeometry relative="1" as="geometry" />
        </mxCell>
        <mxCell id="t8J576ol_tpwqE7DPTdl-50" value="Si &lt;br&gt;L&#39;octet 5 est&lt;br&gt;&quot;0x01&quot;" style="rhombus;whiteSpace=wrap;html=1;rounded=0;" vertex="1" parent="1">
          <mxGeometry x="1387.81" y="1466.25" width="104.38" height="77.5" as="geometry" />
        </mxCell>
        <mxCell id="t8J576ol_tpwqE7DPTdl-65" value="" style="edgeStyle=orthogonalEdgeStyle;rounded=0;orthogonalLoop=1;jettySize=auto;html=1;" edge="1" parent="1" source="t8J576ol_tpwqE7DPTdl-52" target="t8J576ol_tpwqE7DPTdl-64">
          <mxGeometry relative="1" as="geometry" />
        </mxCell>
        <mxCell id="t8J576ol_tpwqE7DPTdl-52" value="Si &lt;br&gt;L&#39;octet 5 est&lt;br&gt;&quot;0x02&quot;" style="rhombus;whiteSpace=wrap;html=1;rounded=0;" vertex="1" parent="1">
          <mxGeometry x="1387.81" y="1623.75" width="104.38" height="77.5" as="geometry" />
        </mxCell>
        <mxCell id="t8J576ol_tpwqE7DPTdl-54" value="Oui" style="text;html=1;align=center;verticalAlign=middle;whiteSpace=wrap;rounded=0;" vertex="1" parent="1">
          <mxGeometry x="1470" y="1660" width="60" height="30" as="geometry" />
        </mxCell>
        <mxCell id="t8J576ol_tpwqE7DPTdl-55" value="Oui" style="text;html=1;align=center;verticalAlign=middle;whiteSpace=wrap;rounded=0;" vertex="1" parent="1">
          <mxGeometry x="1470" y="1345" width="60" height="30" as="geometry" />
        </mxCell>
        <mxCell id="t8J576ol_tpwqE7DPTdl-56" value="Oui" style="text;html=1;align=center;verticalAlign=middle;whiteSpace=wrap;rounded=0;" vertex="1" parent="1">
          <mxGeometry x="1470" y="1500" width="60" height="30" as="geometry" />
        </mxCell>
        <mxCell id="t8J576ol_tpwqE7DPTdl-57" value="Activer le mode Bounce (Allumer les 16 LEDs de la même couleur mais faire varier l&#39;intensité" style="whiteSpace=wrap;html=1;rounded=1;" vertex="1" parent="1">
          <mxGeometry x="1564.38" y="1470" width="120" height="70" as="geometry" />
        </mxCell>
        <mxCell id="t8J576ol_tpwqE7DPTdl-61" value="Activer le mode Normal (allumer les 16 LEDs de la même couleurs et de la même intensité" style="whiteSpace=wrap;html=1;rounded=1;" vertex="1" parent="1">
          <mxGeometry x="1560" y="1311.25" width="120" height="72.5" as="geometry" />
        </mxCell>
        <mxCell id="t8J576ol_tpwqE7DPTdl-75" value="" style="edgeStyle=orthogonalEdgeStyle;rounded=0;orthogonalLoop=1;jettySize=auto;html=1;entryX=0;entryY=0.5;entryDx=0;entryDy=0;" edge="1" parent="1" source="t8J576ol_tpwqE7DPTdl-64" target="t8J576ol_tpwqE7DPTdl-74">
          <mxGeometry relative="1" as="geometry" />
        </mxCell>
        <mxCell id="t8J576ol_tpwqE7DPTdl-64" value="Activer le mode Chargement (Allumer 3 LEDs et faire le chenillard" style="whiteSpace=wrap;html=1;rounded=1;" vertex="1" parent="1">
          <mxGeometry x="1564.38" y="1632.5" width="120" height="60" as="geometry" />
        </mxCell>
        <mxCell id="t8J576ol_tpwqE7DPTdl-67" value="Non" style="text;html=1;align=center;verticalAlign=middle;whiteSpace=wrap;rounded=0;" vertex="1" parent="1">
          <mxGeometry x="1425" y="1380" width="60" height="30" as="geometry" />
        </mxCell>
        <mxCell id="t8J576ol_tpwqE7DPTdl-68" value="Non" style="text;html=1;align=center;verticalAlign=middle;whiteSpace=wrap;rounded=0;" vertex="1" parent="1">
          <mxGeometry x="1425" y="1701.25" width="60" height="30" as="geometry" />
        </mxCell>
        <mxCell id="t8J576ol_tpwqE7DPTdl-69" value="Non" style="text;html=1;align=center;verticalAlign=middle;whiteSpace=wrap;rounded=0;" vertex="1" parent="1">
          <mxGeometry x="1425" y="1540" width="60" height="30" as="geometry" />
        </mxCell>
        <mxCell id="t8J576ol_tpwqE7DPTdl-87" value="" style="edgeStyle=orthogonalEdgeStyle;rounded=0;orthogonalLoop=1;jettySize=auto;html=1;" edge="1" parent="1" source="t8J576ol_tpwqE7DPTdl-74" target="t8J576ol_tpwqE7DPTdl-86">
          <mxGeometry relative="1" as="geometry" />
        </mxCell>
        <mxCell id="t8J576ol_tpwqE7DPTdl-74" value="Lire l&#39;octet 6&lt;br style=&quot;border-color: var(--border-color);&quot;&gt;et affecter sa valeur au valeur&amp;nbsp;&lt;b style=&quot;border-color: var(--border-color);&quot;&gt;ROUGE&amp;nbsp;&lt;/b&gt;de des LEDs" style="whiteSpace=wrap;html=1;rounded=1;" vertex="1" parent="1">
          <mxGeometry x="1764.38" y="1633.13" width="120" height="58.75" as="geometry" />
        </mxCell>
        <mxCell id="t8J576ol_tpwqE7DPTdl-77" value="Lire l&#39;octet 5" style="whiteSpace=wrap;html=1;rounded=1;" vertex="1" parent="1">
          <mxGeometry x="1165" y="1331.25" width="120" height="32.5" as="geometry" />
        </mxCell>
        <mxCell id="t8J576ol_tpwqE7DPTdl-84" value="" style="endArrow=none;html=1;rounded=0;entryX=1;entryY=0.5;entryDx=0;entryDy=0;" edge="1" parent="1" target="t8J576ol_tpwqE7DPTdl-61">
          <mxGeometry width="50" height="50" relative="1" as="geometry">
            <mxPoint x="1725" y="1348" as="sourcePoint" />
            <mxPoint x="1770" y="1565" as="targetPoint" />
          </mxGeometry>
        </mxCell>
        <mxCell id="t8J576ol_tpwqE7DPTdl-85" value="" style="endArrow=none;html=1;rounded=0;" edge="1" parent="1">
          <mxGeometry width="50" height="50" relative="1" as="geometry">
            <mxPoint x="1725" y="1347" as="sourcePoint" />
            <mxPoint x="1725" y="1661.5" as="targetPoint" />
          </mxGeometry>
        </mxCell>
        <mxCell id="t8J576ol_tpwqE7DPTdl-89" value="" style="edgeStyle=orthogonalEdgeStyle;rounded=0;orthogonalLoop=1;jettySize=auto;html=1;" edge="1" parent="1" source="t8J576ol_tpwqE7DPTdl-86" target="t8J576ol_tpwqE7DPTdl-88">
          <mxGeometry relative="1" as="geometry" />
        </mxCell>
        <mxCell id="t8J576ol_tpwqE7DPTdl-86" value="Lire l&#39;octet 7&lt;br style=&quot;border-color: var(--border-color);&quot;&gt;et affecter sa valeur au valeur&amp;nbsp;&lt;b style=&quot;border-color: var(--border-color);&quot;&gt;VERTE&amp;nbsp;&lt;/b&gt;de des LEDs" style="whiteSpace=wrap;html=1;rounded=1;" vertex="1" parent="1">
          <mxGeometry x="1764.38" y="1771.88" width="120" height="58.75" as="geometry" />
        </mxCell>
        <mxCell id="t8J576ol_tpwqE7DPTdl-95" value="" style="edgeStyle=orthogonalEdgeStyle;rounded=0;orthogonalLoop=1;jettySize=auto;html=1;" edge="1" parent="1" source="t8J576ol_tpwqE7DPTdl-88" target="t8J576ol_tpwqE7DPTdl-94">
          <mxGeometry relative="1" as="geometry" />
        </mxCell>
        <mxCell id="t8J576ol_tpwqE7DPTdl-88" value="Lire l&#39;octet 8&lt;br style=&quot;border-color: var(--border-color);&quot;&gt;et affecter sa valeur au valeur &lt;b&gt;BLEU&amp;nbsp;&lt;/b&gt;de des LEDs" style="whiteSpace=wrap;html=1;rounded=1;" vertex="1" parent="1">
          <mxGeometry x="1764.38" y="1910.63" width="120" height="58.75" as="geometry" />
        </mxCell>
        <mxCell id="t8J576ol_tpwqE7DPTdl-97" value="" style="edgeStyle=orthogonalEdgeStyle;rounded=0;orthogonalLoop=1;jettySize=auto;html=1;" edge="1" parent="1" source="t8J576ol_tpwqE7DPTdl-94" target="t8J576ol_tpwqE7DPTdl-96">
          <mxGeometry relative="1" as="geometry" />
        </mxCell>
        <mxCell id="t8J576ol_tpwqE7DPTdl-94" value="Envoyer la trame au LEDs" style="whiteSpace=wrap;html=1;rounded=1;" vertex="1" parent="1">
          <mxGeometry x="1764.38" y="2049.38" width="120" height="58.75" as="geometry" />
        </mxCell>
        <mxCell id="t8J576ol_tpwqE7DPTdl-96" value="Fin des actions pour les LEDs" style="whiteSpace=wrap;html=1;rounded=1;" vertex="1" parent="1">
          <mxGeometry x="950.0000000000001" y="2164.995" width="120" height="60" as="geometry" />
        </mxCell>
        <mxCell id="t8J576ol_tpwqE7DPTdl-98" value="" style="edgeStyle=orthogonalEdgeStyle;rounded=0;orthogonalLoop=1;jettySize=auto;html=1;" edge="1" parent="1" source="t8J576ol_tpwqE7DPTdl-99" target="t8J576ol_tpwqE7DPTdl-102">
          <mxGeometry relative="1" as="geometry" />
        </mxCell>
        <mxCell id="t8J576ol_tpwqE7DPTdl-99" value="Début de actions sur le bras" style="whiteSpace=wrap;html=1;rounded=1;" vertex="1" parent="1">
          <mxGeometry x="963.8100000000001" y="2376" width="120" height="60" as="geometry" />
        </mxCell>
        <mxCell id="U5VWjNL-1dkJV_Vy5fgO-16" value="" style="edgeStyle=orthogonalEdgeStyle;rounded=0;orthogonalLoop=1;jettySize=auto;html=1;" edge="1" parent="1" source="t8J576ol_tpwqE7DPTdl-102" target="U5VWjNL-1dkJV_Vy5fgO-15">
          <mxGeometry relative="1" as="geometry" />
        </mxCell>
        <mxCell id="t8J576ol_tpwqE7DPTdl-102" value="Si &lt;br&gt;l&#39;actionneur &lt;br&gt;sélectionner est &lt;br&gt;Bras Robot" style="rhombus;whiteSpace=wrap;html=1;rounded=0;" vertex="1" parent="1">
          <mxGeometry x="956.0000000000001" y="2501" width="135.62" height="95" as="geometry" />
        </mxCell>
        <mxCell id="U5VWjNL-1dkJV_Vy5fgO-32" value="" style="edgeStyle=orthogonalEdgeStyle;rounded=0;orthogonalLoop=1;jettySize=auto;html=1;" edge="1" parent="1" source="t8J576ol_tpwqE7DPTdl-135" target="U5VWjNL-1dkJV_Vy5fgO-31">
          <mxGeometry relative="1" as="geometry" />
        </mxCell>
        <mxCell id="t8J576ol_tpwqE7DPTdl-135" value="Lire l&#39;octet 5" style="whiteSpace=wrap;html=1;rounded=1;" vertex="1" parent="1">
          <mxGeometry x="1553" y="2531.5" width="120" height="33" as="geometry" />
        </mxCell>
        <mxCell id="t8J576ol_tpwqE7DPTdl-140" value="" style="edgeStyle=orthogonalEdgeStyle;rounded=0;orthogonalLoop=1;jettySize=auto;html=1;" edge="1" parent="1" source="t8J576ol_tpwqE7DPTdl-137" target="t8J576ol_tpwqE7DPTdl-139">
          <mxGeometry relative="1" as="geometry" />
        </mxCell>
        <mxCell id="t8J576ol_tpwqE7DPTdl-207" value="" style="edgeStyle=orthogonalEdgeStyle;rounded=0;orthogonalLoop=1;jettySize=auto;html=1;" edge="1" parent="1" source="t8J576ol_tpwqE7DPTdl-137" target="t8J576ol_tpwqE7DPTdl-206">
          <mxGeometry relative="1" as="geometry" />
        </mxCell>
        <mxCell id="t8J576ol_tpwqE7DPTdl-137" value="Si &lt;br&gt;l&#39;octet 5 &lt;br&gt;est égale&amp;nbsp;à &quot;0x30&quot;" style="rhombus;whiteSpace=wrap;html=1;rounded=0;" vertex="1" parent="1">
          <mxGeometry x="1933" y="2509" width="91.57" height="80" as="geometry" />
        </mxCell>
        <mxCell id="t8J576ol_tpwqE7DPTdl-142" value="" style="edgeStyle=orthogonalEdgeStyle;rounded=0;orthogonalLoop=1;jettySize=auto;html=1;" edge="1" parent="1" source="t8J576ol_tpwqE7DPTdl-139" target="t8J576ol_tpwqE7DPTdl-141">
          <mxGeometry relative="1" as="geometry" />
        </mxCell>
        <mxCell id="t8J576ol_tpwqE7DPTdl-209" value="" style="edgeStyle=orthogonalEdgeStyle;rounded=0;orthogonalLoop=1;jettySize=auto;html=1;" edge="1" parent="1" source="t8J576ol_tpwqE7DPTdl-139" target="t8J576ol_tpwqE7DPTdl-208">
          <mxGeometry relative="1" as="geometry" />
        </mxCell>
        <mxCell id="t8J576ol_tpwqE7DPTdl-139" value="Si &lt;br&gt;l&#39;octet 5 &lt;br&gt;est égale&amp;nbsp;à &quot;0x33&quot;" style="rhombus;whiteSpace=wrap;html=1;rounded=0;" vertex="1" parent="1">
          <mxGeometry x="1933" y="2669" width="91.57" height="80" as="geometry" />
        </mxCell>
        <mxCell id="t8J576ol_tpwqE7DPTdl-144" value="" style="edgeStyle=orthogonalEdgeStyle;rounded=0;orthogonalLoop=1;jettySize=auto;html=1;" edge="1" parent="1" source="t8J576ol_tpwqE7DPTdl-141" target="t8J576ol_tpwqE7DPTdl-143">
          <mxGeometry relative="1" as="geometry" />
        </mxCell>
        <mxCell id="t8J576ol_tpwqE7DPTdl-211" value="" style="edgeStyle=orthogonalEdgeStyle;rounded=0;orthogonalLoop=1;jettySize=auto;html=1;" edge="1" parent="1" source="t8J576ol_tpwqE7DPTdl-141" target="t8J576ol_tpwqE7DPTdl-210">
          <mxGeometry relative="1" as="geometry" />
        </mxCell>
        <mxCell id="t8J576ol_tpwqE7DPTdl-141" value="Si &lt;br&gt;l&#39;octet 5 &lt;br&gt;est égale&amp;nbsp;à &quot;0x39&quot;" style="rhombus;whiteSpace=wrap;html=1;rounded=0;" vertex="1" parent="1">
          <mxGeometry x="1933" y="2829" width="91.57" height="80" as="geometry" />
        </mxCell>
        <mxCell id="t8J576ol_tpwqE7DPTdl-146" value="" style="edgeStyle=orthogonalEdgeStyle;rounded=0;orthogonalLoop=1;jettySize=auto;html=1;" edge="1" parent="1" source="t8J576ol_tpwqE7DPTdl-143" target="t8J576ol_tpwqE7DPTdl-145">
          <mxGeometry relative="1" as="geometry" />
        </mxCell>
        <mxCell id="t8J576ol_tpwqE7DPTdl-213" value="" style="edgeStyle=orthogonalEdgeStyle;rounded=0;orthogonalLoop=1;jettySize=auto;html=1;" edge="1" parent="1" source="t8J576ol_tpwqE7DPTdl-143" target="t8J576ol_tpwqE7DPTdl-212">
          <mxGeometry relative="1" as="geometry" />
        </mxCell>
        <mxCell id="t8J576ol_tpwqE7DPTdl-143" value="Si &lt;br&gt;l&#39;octet 5 &lt;br&gt;est égale&amp;nbsp;à &quot;0x3A&quot;" style="rhombus;whiteSpace=wrap;html=1;rounded=0;" vertex="1" parent="1">
          <mxGeometry x="1933" y="2989" width="91.57" height="80" as="geometry" />
        </mxCell>
        <mxCell id="t8J576ol_tpwqE7DPTdl-148" value="" style="edgeStyle=orthogonalEdgeStyle;rounded=0;orthogonalLoop=1;jettySize=auto;html=1;" edge="1" parent="1" source="t8J576ol_tpwqE7DPTdl-145" target="t8J576ol_tpwqE7DPTdl-147">
          <mxGeometry relative="1" as="geometry" />
        </mxCell>
        <mxCell id="t8J576ol_tpwqE7DPTdl-215" value="" style="edgeStyle=orthogonalEdgeStyle;rounded=0;orthogonalLoop=1;jettySize=auto;html=1;" edge="1" parent="1" source="t8J576ol_tpwqE7DPTdl-145" target="t8J576ol_tpwqE7DPTdl-214">
          <mxGeometry relative="1" as="geometry" />
        </mxCell>
        <mxCell id="t8J576ol_tpwqE7DPTdl-145" value="Si &lt;br&gt;l&#39;octet 5 &lt;br&gt;est égale&amp;nbsp;à &quot;0x3D&quot;" style="rhombus;whiteSpace=wrap;html=1;rounded=0;" vertex="1" parent="1">
          <mxGeometry x="1933" y="3149" width="91.57" height="80" as="geometry" />
        </mxCell>
        <mxCell id="t8J576ol_tpwqE7DPTdl-150" value="" style="edgeStyle=orthogonalEdgeStyle;rounded=0;orthogonalLoop=1;jettySize=auto;html=1;" edge="1" parent="1" source="t8J576ol_tpwqE7DPTdl-147" target="t8J576ol_tpwqE7DPTdl-149">
          <mxGeometry relative="1" as="geometry" />
        </mxCell>
        <mxCell id="t8J576ol_tpwqE7DPTdl-217" value="" style="edgeStyle=orthogonalEdgeStyle;rounded=0;orthogonalLoop=1;jettySize=auto;html=1;" edge="1" parent="1" source="t8J576ol_tpwqE7DPTdl-147" target="t8J576ol_tpwqE7DPTdl-216">
          <mxGeometry relative="1" as="geometry" />
        </mxCell>
        <mxCell id="t8J576ol_tpwqE7DPTdl-147" value="Si &lt;br&gt;l&#39;octet 5 &lt;br&gt;est égale&amp;nbsp;à &quot;0x3E&quot;" style="rhombus;whiteSpace=wrap;html=1;rounded=0;" vertex="1" parent="1">
          <mxGeometry x="1933" y="3309" width="91.57" height="80" as="geometry" />
        </mxCell>
        <mxCell id="t8J576ol_tpwqE7DPTdl-152" value="" style="edgeStyle=orthogonalEdgeStyle;rounded=0;orthogonalLoop=1;jettySize=auto;html=1;" edge="1" parent="1" source="t8J576ol_tpwqE7DPTdl-149" target="t8J576ol_tpwqE7DPTdl-151">
          <mxGeometry relative="1" as="geometry" />
        </mxCell>
        <mxCell id="t8J576ol_tpwqE7DPTdl-219" value="" style="edgeStyle=orthogonalEdgeStyle;rounded=0;orthogonalLoop=1;jettySize=auto;html=1;" edge="1" parent="1" source="t8J576ol_tpwqE7DPTdl-149" target="t8J576ol_tpwqE7DPTdl-218">
          <mxGeometry relative="1" as="geometry" />
        </mxCell>
        <mxCell id="t8J576ol_tpwqE7DPTdl-149" value="Si &lt;br&gt;l&#39;octet 5 &lt;br&gt;est égale&amp;nbsp;à &quot;0x80&quot;" style="rhombus;whiteSpace=wrap;html=1;rounded=0;" vertex="1" parent="1">
          <mxGeometry x="1933" y="3469" width="91.57" height="80" as="geometry" />
        </mxCell>
        <mxCell id="t8J576ol_tpwqE7DPTdl-154" value="" style="edgeStyle=orthogonalEdgeStyle;rounded=0;orthogonalLoop=1;jettySize=auto;html=1;" edge="1" parent="1" source="t8J576ol_tpwqE7DPTdl-151" target="t8J576ol_tpwqE7DPTdl-153">
          <mxGeometry relative="1" as="geometry" />
        </mxCell>
        <mxCell id="t8J576ol_tpwqE7DPTdl-221" value="" style="edgeStyle=orthogonalEdgeStyle;rounded=0;orthogonalLoop=1;jettySize=auto;html=1;" edge="1" parent="1" source="t8J576ol_tpwqE7DPTdl-151" target="t8J576ol_tpwqE7DPTdl-220">
          <mxGeometry relative="1" as="geometry" />
        </mxCell>
        <mxCell id="t8J576ol_tpwqE7DPTdl-151" value="Si &lt;br&gt;l&#39;octet 5 &lt;br&gt;est égale&amp;nbsp;à &quot;0x81&quot;" style="rhombus;whiteSpace=wrap;html=1;rounded=0;" vertex="1" parent="1">
          <mxGeometry x="1933" y="3629" width="91.57" height="80" as="geometry" />
        </mxCell>
        <mxCell id="t8J576ol_tpwqE7DPTdl-156" value="" style="edgeStyle=orthogonalEdgeStyle;rounded=0;orthogonalLoop=1;jettySize=auto;html=1;" edge="1" parent="1" source="t8J576ol_tpwqE7DPTdl-153" target="t8J576ol_tpwqE7DPTdl-155">
          <mxGeometry relative="1" as="geometry" />
        </mxCell>
        <mxCell id="t8J576ol_tpwqE7DPTdl-223" value="" style="edgeStyle=orthogonalEdgeStyle;rounded=0;orthogonalLoop=1;jettySize=auto;html=1;" edge="1" parent="1" source="t8J576ol_tpwqE7DPTdl-153" target="t8J576ol_tpwqE7DPTdl-222">
          <mxGeometry relative="1" as="geometry" />
        </mxCell>
        <mxCell id="t8J576ol_tpwqE7DPTdl-153" value="Si &lt;br&gt;l&#39;octet 5 &lt;br&gt;est égale&amp;nbsp;à &quot;0x82&quot;" style="rhombus;whiteSpace=wrap;html=1;rounded=0;" vertex="1" parent="1">
          <mxGeometry x="1933" y="3789" width="91.57" height="80" as="geometry" />
        </mxCell>
        <mxCell id="t8J576ol_tpwqE7DPTdl-158" value="" style="edgeStyle=orthogonalEdgeStyle;rounded=0;orthogonalLoop=1;jettySize=auto;html=1;" edge="1" parent="1" source="t8J576ol_tpwqE7DPTdl-155" target="t8J576ol_tpwqE7DPTdl-157">
          <mxGeometry relative="1" as="geometry" />
        </mxCell>
        <mxCell id="t8J576ol_tpwqE7DPTdl-225" value="" style="edgeStyle=orthogonalEdgeStyle;rounded=0;orthogonalLoop=1;jettySize=auto;html=1;" edge="1" parent="1" source="t8J576ol_tpwqE7DPTdl-155" target="t8J576ol_tpwqE7DPTdl-224">
          <mxGeometry relative="1" as="geometry" />
        </mxCell>
        <mxCell id="t8J576ol_tpwqE7DPTdl-155" value="Si &lt;br&gt;l&#39;octet 5 &lt;br&gt;est égale&amp;nbsp;à &quot;0x83&quot;" style="rhombus;whiteSpace=wrap;html=1;rounded=0;" vertex="1" parent="1">
          <mxGeometry x="1933" y="3949" width="91.57" height="80" as="geometry" />
        </mxCell>
        <mxCell id="t8J576ol_tpwqE7DPTdl-160" value="" style="edgeStyle=orthogonalEdgeStyle;rounded=0;orthogonalLoop=1;jettySize=auto;html=1;" edge="1" parent="1" source="t8J576ol_tpwqE7DPTdl-157" target="t8J576ol_tpwqE7DPTdl-159">
          <mxGeometry relative="1" as="geometry" />
        </mxCell>
        <mxCell id="t8J576ol_tpwqE7DPTdl-227" value="" style="edgeStyle=orthogonalEdgeStyle;rounded=0;orthogonalLoop=1;jettySize=auto;html=1;" edge="1" parent="1" source="t8J576ol_tpwqE7DPTdl-157" target="t8J576ol_tpwqE7DPTdl-226">
          <mxGeometry relative="1" as="geometry" />
        </mxCell>
        <mxCell id="t8J576ol_tpwqE7DPTdl-157" value="Si &lt;br&gt;l&#39;octet 5 &lt;br&gt;est égale&amp;nbsp;à &quot;0x84&quot;" style="rhombus;whiteSpace=wrap;html=1;rounded=0;" vertex="1" parent="1">
          <mxGeometry x="1933" y="4109" width="91.57" height="80" as="geometry" />
        </mxCell>
        <mxCell id="t8J576ol_tpwqE7DPTdl-162" value="" style="edgeStyle=orthogonalEdgeStyle;rounded=0;orthogonalLoop=1;jettySize=auto;html=1;" edge="1" parent="1" source="t8J576ol_tpwqE7DPTdl-159" target="t8J576ol_tpwqE7DPTdl-161">
          <mxGeometry relative="1" as="geometry" />
        </mxCell>
        <mxCell id="t8J576ol_tpwqE7DPTdl-229" value="" style="edgeStyle=orthogonalEdgeStyle;rounded=0;orthogonalLoop=1;jettySize=auto;html=1;" edge="1" parent="1" source="t8J576ol_tpwqE7DPTdl-159" target="t8J576ol_tpwqE7DPTdl-228">
          <mxGeometry relative="1" as="geometry" />
        </mxCell>
        <mxCell id="t8J576ol_tpwqE7DPTdl-159" value="Si &lt;br&gt;l&#39;octet 5 &lt;br&gt;est égale&amp;nbsp;à &quot;0x85&quot;" style="rhombus;whiteSpace=wrap;html=1;rounded=0;" vertex="1" parent="1">
          <mxGeometry x="1933" y="4269" width="91.57" height="80" as="geometry" />
        </mxCell>
        <mxCell id="t8J576ol_tpwqE7DPTdl-164" value="" style="edgeStyle=orthogonalEdgeStyle;rounded=0;orthogonalLoop=1;jettySize=auto;html=1;" edge="1" parent="1" source="t8J576ol_tpwqE7DPTdl-161" target="t8J576ol_tpwqE7DPTdl-163">
          <mxGeometry relative="1" as="geometry" />
        </mxCell>
        <mxCell id="t8J576ol_tpwqE7DPTdl-231" value="" style="edgeStyle=orthogonalEdgeStyle;rounded=0;orthogonalLoop=1;jettySize=auto;html=1;" edge="1" parent="1" source="t8J576ol_tpwqE7DPTdl-161" target="t8J576ol_tpwqE7DPTdl-230">
          <mxGeometry relative="1" as="geometry" />
        </mxCell>
        <mxCell id="t8J576ol_tpwqE7DPTdl-161" value="Si &lt;br&gt;l&#39;octet 5 &lt;br&gt;est égale&amp;nbsp;à &quot;0x86&quot;" style="rhombus;whiteSpace=wrap;html=1;rounded=0;" vertex="1" parent="1">
          <mxGeometry x="1933" y="4429" width="91.57" height="80" as="geometry" />
        </mxCell>
        <mxCell id="t8J576ol_tpwqE7DPTdl-166" value="" style="edgeStyle=orthogonalEdgeStyle;rounded=0;orthogonalLoop=1;jettySize=auto;html=1;" edge="1" parent="1" source="t8J576ol_tpwqE7DPTdl-163" target="t8J576ol_tpwqE7DPTdl-165">
          <mxGeometry relative="1" as="geometry" />
        </mxCell>
        <mxCell id="t8J576ol_tpwqE7DPTdl-233" value="" style="edgeStyle=orthogonalEdgeStyle;rounded=0;orthogonalLoop=1;jettySize=auto;html=1;" edge="1" parent="1" source="t8J576ol_tpwqE7DPTdl-163" target="t8J576ol_tpwqE7DPTdl-232">
          <mxGeometry relative="1" as="geometry" />
        </mxCell>
        <mxCell id="t8J576ol_tpwqE7DPTdl-163" value="Si &lt;br&gt;l&#39;octet 5 &lt;br&gt;est égale&amp;nbsp;à &quot;0x87&quot;" style="rhombus;whiteSpace=wrap;html=1;rounded=0;" vertex="1" parent="1">
          <mxGeometry x="1933" y="4589" width="91.57" height="80" as="geometry" />
        </mxCell>
        <mxCell id="t8J576ol_tpwqE7DPTdl-168" value="" style="edgeStyle=orthogonalEdgeStyle;rounded=0;orthogonalLoop=1;jettySize=auto;html=1;" edge="1" parent="1" source="t8J576ol_tpwqE7DPTdl-165" target="t8J576ol_tpwqE7DPTdl-167">
          <mxGeometry relative="1" as="geometry" />
        </mxCell>
        <mxCell id="t8J576ol_tpwqE7DPTdl-235" value="" style="edgeStyle=orthogonalEdgeStyle;rounded=0;orthogonalLoop=1;jettySize=auto;html=1;" edge="1" parent="1" source="t8J576ol_tpwqE7DPTdl-165" target="t8J576ol_tpwqE7DPTdl-234">
          <mxGeometry relative="1" as="geometry" />
        </mxCell>
        <mxCell id="t8J576ol_tpwqE7DPTdl-165" value="Si &lt;br&gt;l&#39;octet 5 &lt;br&gt;est égale&amp;nbsp;à &quot;0x88&quot;" style="rhombus;whiteSpace=wrap;html=1;rounded=0;" vertex="1" parent="1">
          <mxGeometry x="1933" y="4749" width="91.57" height="80" as="geometry" />
        </mxCell>
        <mxCell id="t8J576ol_tpwqE7DPTdl-170" value="" style="edgeStyle=orthogonalEdgeStyle;rounded=0;orthogonalLoop=1;jettySize=auto;html=1;" edge="1" parent="1" source="t8J576ol_tpwqE7DPTdl-167" target="t8J576ol_tpwqE7DPTdl-169">
          <mxGeometry relative="1" as="geometry" />
        </mxCell>
        <mxCell id="t8J576ol_tpwqE7DPTdl-237" value="" style="edgeStyle=orthogonalEdgeStyle;rounded=0;orthogonalLoop=1;jettySize=auto;html=1;" edge="1" parent="1" source="t8J576ol_tpwqE7DPTdl-167" target="t8J576ol_tpwqE7DPTdl-236">
          <mxGeometry relative="1" as="geometry" />
        </mxCell>
        <mxCell id="t8J576ol_tpwqE7DPTdl-167" value="Si &lt;br&gt;l&#39;octet 5 &lt;br&gt;est égale&amp;nbsp;à &quot;0x89&quot;" style="rhombus;whiteSpace=wrap;html=1;rounded=0;" vertex="1" parent="1">
          <mxGeometry x="1933" y="4909" width="91.57" height="80" as="geometry" />
        </mxCell>
        <mxCell id="t8J576ol_tpwqE7DPTdl-172" value="" style="edgeStyle=orthogonalEdgeStyle;rounded=0;orthogonalLoop=1;jettySize=auto;html=1;" edge="1" parent="1" source="t8J576ol_tpwqE7DPTdl-169" target="t8J576ol_tpwqE7DPTdl-171">
          <mxGeometry relative="1" as="geometry" />
        </mxCell>
        <mxCell id="t8J576ol_tpwqE7DPTdl-239" value="" style="edgeStyle=orthogonalEdgeStyle;rounded=0;orthogonalLoop=1;jettySize=auto;html=1;" edge="1" parent="1" source="t8J576ol_tpwqE7DPTdl-169" target="t8J576ol_tpwqE7DPTdl-238">
          <mxGeometry relative="1" as="geometry" />
        </mxCell>
        <mxCell id="t8J576ol_tpwqE7DPTdl-169" value="Si &lt;br&gt;l&#39;octet 5 &lt;br&gt;est égale&amp;nbsp;à &quot;0x8A&quot;" style="rhombus;whiteSpace=wrap;html=1;rounded=0;" vertex="1" parent="1">
          <mxGeometry x="1933" y="5069" width="91.57" height="80" as="geometry" />
        </mxCell>
        <mxCell id="t8J576ol_tpwqE7DPTdl-174" value="" style="edgeStyle=orthogonalEdgeStyle;rounded=0;orthogonalLoop=1;jettySize=auto;html=1;" edge="1" parent="1" source="t8J576ol_tpwqE7DPTdl-171" target="t8J576ol_tpwqE7DPTdl-173">
          <mxGeometry relative="1" as="geometry" />
        </mxCell>
        <mxCell id="t8J576ol_tpwqE7DPTdl-241" value="" style="edgeStyle=orthogonalEdgeStyle;rounded=0;orthogonalLoop=1;jettySize=auto;html=1;" edge="1" parent="1" source="t8J576ol_tpwqE7DPTdl-171" target="t8J576ol_tpwqE7DPTdl-240">
          <mxGeometry relative="1" as="geometry" />
        </mxCell>
        <mxCell id="t8J576ol_tpwqE7DPTdl-171" value="Si &lt;br&gt;l&#39;octet 5 &lt;br&gt;est égale&amp;nbsp;à &quot;0x8B&quot;" style="rhombus;whiteSpace=wrap;html=1;rounded=0;" vertex="1" parent="1">
          <mxGeometry x="1933" y="5229" width="91.57" height="80" as="geometry" />
        </mxCell>
        <mxCell id="t8J576ol_tpwqE7DPTdl-176" value="" style="edgeStyle=orthogonalEdgeStyle;rounded=0;orthogonalLoop=1;jettySize=auto;html=1;" edge="1" parent="1" source="t8J576ol_tpwqE7DPTdl-173" target="t8J576ol_tpwqE7DPTdl-175">
          <mxGeometry relative="1" as="geometry" />
        </mxCell>
        <mxCell id="t8J576ol_tpwqE7DPTdl-243" value="" style="edgeStyle=orthogonalEdgeStyle;rounded=0;orthogonalLoop=1;jettySize=auto;html=1;" edge="1" parent="1" source="t8J576ol_tpwqE7DPTdl-173" target="t8J576ol_tpwqE7DPTdl-242">
          <mxGeometry relative="1" as="geometry" />
        </mxCell>
        <mxCell id="t8J576ol_tpwqE7DPTdl-173" value="Si &lt;br&gt;l&#39;octet 5 &lt;br&gt;est égale&amp;nbsp;à &quot;0x8F&quot;" style="rhombus;whiteSpace=wrap;html=1;rounded=0;" vertex="1" parent="1">
          <mxGeometry x="1933" y="5389" width="91.57" height="80" as="geometry" />
        </mxCell>
        <mxCell id="t8J576ol_tpwqE7DPTdl-178" value="" style="edgeStyle=orthogonalEdgeStyle;rounded=0;orthogonalLoop=1;jettySize=auto;html=1;" edge="1" parent="1" source="t8J576ol_tpwqE7DPTdl-175" target="t8J576ol_tpwqE7DPTdl-177">
          <mxGeometry relative="1" as="geometry" />
        </mxCell>
        <mxCell id="t8J576ol_tpwqE7DPTdl-245" value="" style="edgeStyle=orthogonalEdgeStyle;rounded=0;orthogonalLoop=1;jettySize=auto;html=1;" edge="1" parent="1" source="t8J576ol_tpwqE7DPTdl-175" target="t8J576ol_tpwqE7DPTdl-244">
          <mxGeometry relative="1" as="geometry" />
        </mxCell>
        <mxCell id="t8J576ol_tpwqE7DPTdl-175" value="Si &lt;br&gt;l&#39;octet 5 &lt;br&gt;est égale&amp;nbsp;à &quot;0x90&quot;" style="rhombus;whiteSpace=wrap;html=1;rounded=0;" vertex="1" parent="1">
          <mxGeometry x="1933" y="5549" width="91.57" height="80" as="geometry" />
        </mxCell>
        <mxCell id="t8J576ol_tpwqE7DPTdl-180" value="" style="edgeStyle=orthogonalEdgeStyle;rounded=0;orthogonalLoop=1;jettySize=auto;html=1;" edge="1" parent="1" source="t8J576ol_tpwqE7DPTdl-177" target="t8J576ol_tpwqE7DPTdl-179">
          <mxGeometry relative="1" as="geometry" />
        </mxCell>
        <mxCell id="t8J576ol_tpwqE7DPTdl-247" value="" style="edgeStyle=orthogonalEdgeStyle;rounded=0;orthogonalLoop=1;jettySize=auto;html=1;" edge="1" parent="1" source="t8J576ol_tpwqE7DPTdl-177" target="t8J576ol_tpwqE7DPTdl-246">
          <mxGeometry relative="1" as="geometry" />
        </mxCell>
        <mxCell id="t8J576ol_tpwqE7DPTdl-177" value="Si &lt;br&gt;l&#39;octet 5 &lt;br&gt;est égale&amp;nbsp;à &quot;0x91&quot;" style="rhombus;whiteSpace=wrap;html=1;rounded=0;" vertex="1" parent="1">
          <mxGeometry x="1933" y="5709" width="91.57" height="80" as="geometry" />
        </mxCell>
        <mxCell id="t8J576ol_tpwqE7DPTdl-183" value="" style="edgeStyle=orthogonalEdgeStyle;rounded=0;orthogonalLoop=1;jettySize=auto;html=1;" edge="1" parent="1" source="t8J576ol_tpwqE7DPTdl-179" target="t8J576ol_tpwqE7DPTdl-182">
          <mxGeometry relative="1" as="geometry" />
        </mxCell>
        <mxCell id="t8J576ol_tpwqE7DPTdl-249" value="" style="edgeStyle=orthogonalEdgeStyle;rounded=0;orthogonalLoop=1;jettySize=auto;html=1;" edge="1" parent="1" source="t8J576ol_tpwqE7DPTdl-179" target="t8J576ol_tpwqE7DPTdl-248">
          <mxGeometry relative="1" as="geometry" />
        </mxCell>
        <mxCell id="t8J576ol_tpwqE7DPTdl-179" value="Si &lt;br&gt;l&#39;octet 5 &lt;br&gt;est égale&amp;nbsp;à &quot;0x92&quot;" style="rhombus;whiteSpace=wrap;html=1;rounded=0;" vertex="1" parent="1">
          <mxGeometry x="1933" y="5869" width="91.57" height="80" as="geometry" />
        </mxCell>
        <mxCell id="t8J576ol_tpwqE7DPTdl-185" value="" style="edgeStyle=orthogonalEdgeStyle;rounded=0;orthogonalLoop=1;jettySize=auto;html=1;" edge="1" parent="1" source="t8J576ol_tpwqE7DPTdl-182" target="t8J576ol_tpwqE7DPTdl-184">
          <mxGeometry relative="1" as="geometry" />
        </mxCell>
        <mxCell id="t8J576ol_tpwqE7DPTdl-251" value="" style="edgeStyle=orthogonalEdgeStyle;rounded=0;orthogonalLoop=1;jettySize=auto;html=1;" edge="1" parent="1" source="t8J576ol_tpwqE7DPTdl-182" target="t8J576ol_tpwqE7DPTdl-250">
          <mxGeometry relative="1" as="geometry" />
        </mxCell>
        <mxCell id="t8J576ol_tpwqE7DPTdl-182" value="Si &lt;br&gt;l&#39;octet 5 &lt;br&gt;est égale&amp;nbsp;à &quot;0x93&quot;" style="rhombus;whiteSpace=wrap;html=1;rounded=0;" vertex="1" parent="1">
          <mxGeometry x="1933" y="6029" width="91.57" height="80" as="geometry" />
        </mxCell>
        <mxCell id="t8J576ol_tpwqE7DPTdl-187" value="" style="edgeStyle=orthogonalEdgeStyle;rounded=0;orthogonalLoop=1;jettySize=auto;html=1;" edge="1" parent="1" source="t8J576ol_tpwqE7DPTdl-184" target="t8J576ol_tpwqE7DPTdl-186">
          <mxGeometry relative="1" as="geometry" />
        </mxCell>
        <mxCell id="t8J576ol_tpwqE7DPTdl-253" value="" style="edgeStyle=orthogonalEdgeStyle;rounded=0;orthogonalLoop=1;jettySize=auto;html=1;" edge="1" parent="1" source="t8J576ol_tpwqE7DPTdl-184" target="t8J576ol_tpwqE7DPTdl-252">
          <mxGeometry relative="1" as="geometry" />
        </mxCell>
        <mxCell id="t8J576ol_tpwqE7DPTdl-184" value="Si &lt;br&gt;l&#39;octet 5 &lt;br&gt;est égale&amp;nbsp;à &quot;0x94&quot;" style="rhombus;whiteSpace=wrap;html=1;rounded=0;" vertex="1" parent="1">
          <mxGeometry x="1933" y="6189" width="91.57" height="80" as="geometry" />
        </mxCell>
        <mxCell id="t8J576ol_tpwqE7DPTdl-189" value="" style="edgeStyle=orthogonalEdgeStyle;rounded=0;orthogonalLoop=1;jettySize=auto;html=1;" edge="1" parent="1" source="t8J576ol_tpwqE7DPTdl-186" target="t8J576ol_tpwqE7DPTdl-188">
          <mxGeometry relative="1" as="geometry" />
        </mxCell>
        <mxCell id="t8J576ol_tpwqE7DPTdl-255" value="" style="edgeStyle=orthogonalEdgeStyle;rounded=0;orthogonalLoop=1;jettySize=auto;html=1;" edge="1" parent="1" source="t8J576ol_tpwqE7DPTdl-186" target="t8J576ol_tpwqE7DPTdl-254">
          <mxGeometry relative="1" as="geometry" />
        </mxCell>
        <mxCell id="t8J576ol_tpwqE7DPTdl-186" value="Si &lt;br&gt;l&#39;octet 5 &lt;br&gt;est égale&amp;nbsp;à &quot;0xA1&quot;" style="rhombus;whiteSpace=wrap;html=1;rounded=0;" vertex="1" parent="1">
          <mxGeometry x="1933" y="6349" width="91.57" height="80" as="geometry" />
        </mxCell>
        <mxCell id="t8J576ol_tpwqE7DPTdl-191" value="" style="edgeStyle=orthogonalEdgeStyle;rounded=0;orthogonalLoop=1;jettySize=auto;html=1;" edge="1" parent="1" source="t8J576ol_tpwqE7DPTdl-188" target="t8J576ol_tpwqE7DPTdl-190">
          <mxGeometry relative="1" as="geometry" />
        </mxCell>
        <mxCell id="t8J576ol_tpwqE7DPTdl-257" value="" style="edgeStyle=orthogonalEdgeStyle;rounded=0;orthogonalLoop=1;jettySize=auto;html=1;" edge="1" parent="1" source="t8J576ol_tpwqE7DPTdl-188" target="t8J576ol_tpwqE7DPTdl-256">
          <mxGeometry relative="1" as="geometry" />
        </mxCell>
        <mxCell id="t8J576ol_tpwqE7DPTdl-188" value="Si &lt;br&gt;l&#39;octet 5 &lt;br&gt;est égale&amp;nbsp;à &quot;0xA2&quot;" style="rhombus;whiteSpace=wrap;html=1;rounded=0;" vertex="1" parent="1">
          <mxGeometry x="1933" y="6509" width="91.57" height="80" as="geometry" />
        </mxCell>
        <mxCell id="t8J576ol_tpwqE7DPTdl-193" value="" style="edgeStyle=orthogonalEdgeStyle;rounded=0;orthogonalLoop=1;jettySize=auto;html=1;" edge="1" parent="1" source="t8J576ol_tpwqE7DPTdl-190" target="t8J576ol_tpwqE7DPTdl-192">
          <mxGeometry relative="1" as="geometry" />
        </mxCell>
        <mxCell id="t8J576ol_tpwqE7DPTdl-259" value="" style="edgeStyle=orthogonalEdgeStyle;rounded=0;orthogonalLoop=1;jettySize=auto;html=1;" edge="1" parent="1" source="t8J576ol_tpwqE7DPTdl-190" target="t8J576ol_tpwqE7DPTdl-258">
          <mxGeometry relative="1" as="geometry" />
        </mxCell>
        <mxCell id="t8J576ol_tpwqE7DPTdl-190" value="Si &lt;br&gt;l&#39;octet 5 &lt;br&gt;est égale&amp;nbsp;à &quot;0xA3&quot;" style="rhombus;whiteSpace=wrap;html=1;rounded=0;" vertex="1" parent="1">
          <mxGeometry x="1933" y="6669" width="91.57" height="80" as="geometry" />
        </mxCell>
        <mxCell id="t8J576ol_tpwqE7DPTdl-195" value="" style="edgeStyle=orthogonalEdgeStyle;rounded=0;orthogonalLoop=1;jettySize=auto;html=1;" edge="1" parent="1" source="t8J576ol_tpwqE7DPTdl-192" target="t8J576ol_tpwqE7DPTdl-194">
          <mxGeometry relative="1" as="geometry" />
        </mxCell>
        <mxCell id="t8J576ol_tpwqE7DPTdl-261" value="" style="edgeStyle=orthogonalEdgeStyle;rounded=0;orthogonalLoop=1;jettySize=auto;html=1;" edge="1" parent="1" source="t8J576ol_tpwqE7DPTdl-192" target="t8J576ol_tpwqE7DPTdl-260">
          <mxGeometry relative="1" as="geometry" />
        </mxCell>
        <mxCell id="t8J576ol_tpwqE7DPTdl-192" value="Si &lt;br&gt;l&#39;octet 5 &lt;br&gt;est égale&amp;nbsp;à &quot;0xA4&quot;" style="rhombus;whiteSpace=wrap;html=1;rounded=0;" vertex="1" parent="1">
          <mxGeometry x="1933" y="6829" width="91.57" height="80" as="geometry" />
        </mxCell>
        <mxCell id="t8J576ol_tpwqE7DPTdl-197" value="" style="edgeStyle=orthogonalEdgeStyle;rounded=0;orthogonalLoop=1;jettySize=auto;html=1;" edge="1" parent="1" source="t8J576ol_tpwqE7DPTdl-194" target="t8J576ol_tpwqE7DPTdl-196">
          <mxGeometry relative="1" as="geometry" />
        </mxCell>
        <mxCell id="t8J576ol_tpwqE7DPTdl-263" value="" style="edgeStyle=orthogonalEdgeStyle;rounded=0;orthogonalLoop=1;jettySize=auto;html=1;" edge="1" parent="1" source="t8J576ol_tpwqE7DPTdl-194" target="t8J576ol_tpwqE7DPTdl-262">
          <mxGeometry relative="1" as="geometry" />
        </mxCell>
        <mxCell id="t8J576ol_tpwqE7DPTdl-194" value="Si &lt;br&gt;l&#39;octet 5 &lt;br&gt;est égale&amp;nbsp;à &quot;0xA5&quot;" style="rhombus;whiteSpace=wrap;html=1;rounded=0;" vertex="1" parent="1">
          <mxGeometry x="1933" y="6989" width="91.57" height="80" as="geometry" />
        </mxCell>
        <mxCell id="t8J576ol_tpwqE7DPTdl-199" value="" style="edgeStyle=orthogonalEdgeStyle;rounded=0;orthogonalLoop=1;jettySize=auto;html=1;" edge="1" parent="1" source="t8J576ol_tpwqE7DPTdl-196" target="t8J576ol_tpwqE7DPTdl-198">
          <mxGeometry relative="1" as="geometry" />
        </mxCell>
        <mxCell id="t8J576ol_tpwqE7DPTdl-265" value="" style="edgeStyle=orthogonalEdgeStyle;rounded=0;orthogonalLoop=1;jettySize=auto;html=1;" edge="1" parent="1" source="t8J576ol_tpwqE7DPTdl-196" target="t8J576ol_tpwqE7DPTdl-264">
          <mxGeometry relative="1" as="geometry" />
        </mxCell>
        <mxCell id="t8J576ol_tpwqE7DPTdl-196" value="Si &lt;br&gt;l&#39;octet 5 &lt;br&gt;est égale&amp;nbsp;à &quot;0xF3&quot;" style="rhombus;whiteSpace=wrap;html=1;rounded=0;" vertex="1" parent="1">
          <mxGeometry x="1933" y="7149" width="91.57" height="80" as="geometry" />
        </mxCell>
        <mxCell id="t8J576ol_tpwqE7DPTdl-201" value="" style="edgeStyle=orthogonalEdgeStyle;rounded=0;orthogonalLoop=1;jettySize=auto;html=1;" edge="1" parent="1" source="t8J576ol_tpwqE7DPTdl-198" target="t8J576ol_tpwqE7DPTdl-200">
          <mxGeometry relative="1" as="geometry" />
        </mxCell>
        <mxCell id="t8J576ol_tpwqE7DPTdl-267" value="" style="edgeStyle=orthogonalEdgeStyle;rounded=0;orthogonalLoop=1;jettySize=auto;html=1;" edge="1" parent="1" source="t8J576ol_tpwqE7DPTdl-198" target="t8J576ol_tpwqE7DPTdl-266">
          <mxGeometry relative="1" as="geometry" />
        </mxCell>
        <mxCell id="t8J576ol_tpwqE7DPTdl-198" value="Si &lt;br&gt;l&#39;octet 5 &lt;br&gt;est égale&amp;nbsp;à &quot;0xF6&quot;" style="rhombus;whiteSpace=wrap;html=1;rounded=0;" vertex="1" parent="1">
          <mxGeometry x="1933" y="7309" width="91.57" height="80" as="geometry" />
        </mxCell>
        <mxCell id="t8J576ol_tpwqE7DPTdl-203" value="" style="edgeStyle=orthogonalEdgeStyle;rounded=0;orthogonalLoop=1;jettySize=auto;html=1;" edge="1" parent="1" source="t8J576ol_tpwqE7DPTdl-200" target="t8J576ol_tpwqE7DPTdl-202">
          <mxGeometry relative="1" as="geometry" />
        </mxCell>
        <mxCell id="t8J576ol_tpwqE7DPTdl-269" value="" style="edgeStyle=orthogonalEdgeStyle;rounded=0;orthogonalLoop=1;jettySize=auto;html=1;" edge="1" parent="1" source="t8J576ol_tpwqE7DPTdl-200" target="t8J576ol_tpwqE7DPTdl-268">
          <mxGeometry relative="1" as="geometry" />
        </mxCell>
        <mxCell id="t8J576ol_tpwqE7DPTdl-200" value="Si &lt;br&gt;l&#39;octet 5 &lt;br&gt;est égale&amp;nbsp;à &quot;0xF7&quot;" style="rhombus;whiteSpace=wrap;html=1;rounded=0;" vertex="1" parent="1">
          <mxGeometry x="1933" y="7469" width="91.57" height="80" as="geometry" />
        </mxCell>
        <mxCell id="t8J576ol_tpwqE7DPTdl-205" value="" style="edgeStyle=orthogonalEdgeStyle;rounded=0;orthogonalLoop=1;jettySize=auto;html=1;" edge="1" parent="1" source="t8J576ol_tpwqE7DPTdl-202" target="t8J576ol_tpwqE7DPTdl-204">
          <mxGeometry relative="1" as="geometry" />
        </mxCell>
        <mxCell id="t8J576ol_tpwqE7DPTdl-271" value="" style="edgeStyle=orthogonalEdgeStyle;rounded=0;orthogonalLoop=1;jettySize=auto;html=1;" edge="1" parent="1" source="t8J576ol_tpwqE7DPTdl-202" target="t8J576ol_tpwqE7DPTdl-270">
          <mxGeometry relative="1" as="geometry" />
        </mxCell>
        <mxCell id="t8J576ol_tpwqE7DPTdl-202" value="Si &lt;br&gt;l&#39;octet 5 &lt;br&gt;est égale&amp;nbsp;à &quot;0xFD&quot;" style="rhombus;whiteSpace=wrap;html=1;rounded=0;" vertex="1" parent="1">
          <mxGeometry x="1933" y="7629" width="91.57" height="80" as="geometry" />
        </mxCell>
        <mxCell id="t8J576ol_tpwqE7DPTdl-273" value="" style="edgeStyle=orthogonalEdgeStyle;rounded=0;orthogonalLoop=1;jettySize=auto;html=1;" edge="1" parent="1" source="t8J576ol_tpwqE7DPTdl-204" target="t8J576ol_tpwqE7DPTdl-272">
          <mxGeometry relative="1" as="geometry" />
        </mxCell>
        <mxCell id="U5VWjNL-1dkJV_Vy5fgO-346" value="" style="edgeStyle=orthogonalEdgeStyle;rounded=0;orthogonalLoop=1;jettySize=auto;html=1;endArrow=none;endFill=0;" edge="1" parent="1" source="t8J576ol_tpwqE7DPTdl-204">
          <mxGeometry relative="1" as="geometry">
            <mxPoint x="1979" y="8121" as="targetPoint" />
          </mxGeometry>
        </mxCell>
        <mxCell id="t8J576ol_tpwqE7DPTdl-204" value="Si &lt;br&gt;l&#39;octet 5 &lt;br&gt;est égale&amp;nbsp;à &quot;0xFF&quot;" style="rhombus;whiteSpace=wrap;html=1;rounded=0;" vertex="1" parent="1">
          <mxGeometry x="1933" y="7789" width="91.57" height="80" as="geometry" />
        </mxCell>
        <mxCell id="U5VWjNL-1dkJV_Vy5fgO-37" value="" style="edgeStyle=orthogonalEdgeStyle;rounded=0;orthogonalLoop=1;jettySize=auto;html=1;endArrow=none;endFill=0;" edge="1" parent="1" source="t8J576ol_tpwqE7DPTdl-206">
          <mxGeometry relative="1" as="geometry">
            <mxPoint x="2250" y="2549" as="targetPoint" />
          </mxGeometry>
        </mxCell>
        <mxCell id="t8J576ol_tpwqE7DPTdl-206" value="Lire l&#39;encodeur du moteur" style="whiteSpace=wrap;html=1;rounded=1;" vertex="1" parent="1">
          <mxGeometry x="2090.355" y="2519" width="120" height="60" as="geometry" />
        </mxCell>
        <mxCell id="U5VWjNL-1dkJV_Vy5fgO-218" value="" style="edgeStyle=orthogonalEdgeStyle;rounded=0;orthogonalLoop=1;jettySize=auto;html=1;endArrow=none;endFill=0;" edge="1" parent="1" source="t8J576ol_tpwqE7DPTdl-208">
          <mxGeometry relative="1" as="geometry">
            <mxPoint x="2250" y="2709" as="targetPoint" />
          </mxGeometry>
        </mxCell>
        <mxCell id="t8J576ol_tpwqE7DPTdl-208" value="Lire le nombre de pulsation" style="whiteSpace=wrap;html=1;rounded=1;" vertex="1" parent="1">
          <mxGeometry x="2090.355" y="2679" width="120" height="60" as="geometry" />
        </mxCell>
        <mxCell id="U5VWjNL-1dkJV_Vy5fgO-39" value="" style="edgeStyle=orthogonalEdgeStyle;rounded=0;orthogonalLoop=1;jettySize=auto;html=1;endArrow=none;endFill=0;" edge="1" parent="1" source="t8J576ol_tpwqE7DPTdl-210">
          <mxGeometry relative="1" as="geometry">
            <mxPoint x="2250" y="2869" as="targetPoint" />
          </mxGeometry>
        </mxCell>
        <mxCell id="t8J576ol_tpwqE7DPTdl-210" value="Lire l&#39;error de motor angle" style="whiteSpace=wrap;html=1;rounded=1;" vertex="1" parent="1">
          <mxGeometry x="2090.355" y="2839" width="120" height="60" as="geometry" />
        </mxCell>
        <mxCell id="U5VWjNL-1dkJV_Vy5fgO-41" value="" style="edgeStyle=orthogonalEdgeStyle;rounded=0;orthogonalLoop=1;jettySize=auto;html=1;endArrow=none;endFill=0;" edge="1" parent="1" source="t8J576ol_tpwqE7DPTdl-212">
          <mxGeometry relative="1" as="geometry">
            <mxPoint x="2250" y="3029" as="targetPoint" />
          </mxGeometry>
        </mxCell>
        <mxCell id="t8J576ol_tpwqE7DPTdl-212" value="Lire l&#39;état de la pin enable&amp;nbsp;" style="whiteSpace=wrap;html=1;rounded=1;" vertex="1" parent="1">
          <mxGeometry x="2090.355" y="2999" width="120" height="60" as="geometry" />
        </mxCell>
        <mxCell id="U5VWjNL-1dkJV_Vy5fgO-45" value="" style="edgeStyle=orthogonalEdgeStyle;rounded=0;orthogonalLoop=1;jettySize=auto;html=1;endArrow=none;endFill=0;" edge="1" parent="1" source="t8J576ol_tpwqE7DPTdl-214">
          <mxGeometry relative="1" as="geometry">
            <mxPoint x="2250" y="3189" as="targetPoint" />
          </mxGeometry>
        </mxCell>
        <mxCell id="t8J576ol_tpwqE7DPTdl-214" value="Lire l&#39;état du blocage du rotor" style="whiteSpace=wrap;html=1;rounded=1;" vertex="1" parent="1">
          <mxGeometry x="2090.355" y="3159" width="120" height="60" as="geometry" />
        </mxCell>
        <mxCell id="U5VWjNL-1dkJV_Vy5fgO-220" value="" style="edgeStyle=orthogonalEdgeStyle;rounded=0;orthogonalLoop=1;jettySize=auto;html=1;" edge="1" parent="1" source="t8J576ol_tpwqE7DPTdl-216">
          <mxGeometry relative="1" as="geometry">
            <mxPoint x="2290.3549999999996" y="3349" as="targetPoint" />
          </mxGeometry>
        </mxCell>
        <mxCell id="t8J576ol_tpwqE7DPTdl-216" value="Lire l&#39;état de la protection du rotor&amp;nbsp;" style="whiteSpace=wrap;html=1;rounded=1;" vertex="1" parent="1">
          <mxGeometry x="2090.355" y="3319" width="120" height="60" as="geometry" />
        </mxCell>
        <mxCell id="U5VWjNL-1dkJV_Vy5fgO-54" value="" style="edgeStyle=orthogonalEdgeStyle;rounded=0;orthogonalLoop=1;jettySize=auto;html=1;endArrow=none;endFill=0;" edge="1" parent="1">
          <mxGeometry relative="1" as="geometry">
            <mxPoint x="2411.0049999999997" y="3509" as="sourcePoint" />
            <mxPoint x="2446" y="3513" as="targetPoint" />
          </mxGeometry>
        </mxCell>
        <mxCell id="U5VWjNL-1dkJV_Vy5fgO-85" value="" style="edgeStyle=orthogonalEdgeStyle;rounded=0;orthogonalLoop=1;jettySize=auto;html=1;" edge="1" parent="1" source="t8J576ol_tpwqE7DPTdl-218" target="U5VWjNL-1dkJV_Vy5fgO-84">
          <mxGeometry relative="1" as="geometry" />
        </mxCell>
        <mxCell id="t8J576ol_tpwqE7DPTdl-218" value="Lancer la calibration du moteur" style="whiteSpace=wrap;html=1;rounded=1;" vertex="1" parent="1">
          <mxGeometry x="2090.355" y="3479" width="120" height="60" as="geometry" />
        </mxCell>
        <mxCell id="U5VWjNL-1dkJV_Vy5fgO-56" value="" style="edgeStyle=orthogonalEdgeStyle;rounded=0;orthogonalLoop=1;jettySize=auto;html=1;endArrow=none;endFill=0;" edge="1" parent="1">
          <mxGeometry relative="1" as="geometry">
            <mxPoint x="2411.0049999999997" y="3669" as="sourcePoint" />
            <mxPoint x="2446" y="3670" as="targetPoint" />
          </mxGeometry>
        </mxCell>
        <mxCell id="U5VWjNL-1dkJV_Vy5fgO-87" value="" style="edgeStyle=orthogonalEdgeStyle;rounded=0;orthogonalLoop=1;jettySize=auto;html=1;" edge="1" parent="1" source="t8J576ol_tpwqE7DPTdl-220" target="U5VWjNL-1dkJV_Vy5fgO-86">
          <mxGeometry relative="1" as="geometry" />
        </mxCell>
        <mxCell id="t8J576ol_tpwqE7DPTdl-220" value="Changer L&#39;angle de rotation du moteur" style="whiteSpace=wrap;html=1;rounded=1" vertex="1" parent="1">
          <mxGeometry x="2090.355" y="3639" width="120" height="60" as="geometry" />
        </mxCell>
        <mxCell id="U5VWjNL-1dkJV_Vy5fgO-58" value="" style="edgeStyle=orthogonalEdgeStyle;rounded=0;orthogonalLoop=1;jettySize=auto;html=1;endArrow=none;endFill=0;" edge="1" parent="1">
          <mxGeometry relative="1" as="geometry">
            <mxPoint x="2411.0049999999997" y="3829" as="sourcePoint" />
            <mxPoint x="2446" y="3830" as="targetPoint" />
          </mxGeometry>
        </mxCell>
        <mxCell id="U5VWjNL-1dkJV_Vy5fgO-89" value="" style="edgeStyle=orthogonalEdgeStyle;rounded=0;orthogonalLoop=1;jettySize=auto;html=1;" edge="1" parent="1" source="t8J576ol_tpwqE7DPTdl-222" target="U5VWjNL-1dkJV_Vy5fgO-88">
          <mxGeometry relative="1" as="geometry" />
        </mxCell>
        <mxCell id="t8J576ol_tpwqE7DPTdl-222" value="Changer le mode de communication du moteur" style="whiteSpace=wrap;html=1;rounded=1;" vertex="1" parent="1">
          <mxGeometry x="2090.355" y="3799" width="120" height="60" as="geometry" />
        </mxCell>
        <mxCell id="U5VWjNL-1dkJV_Vy5fgO-60" value="" style="edgeStyle=orthogonalEdgeStyle;rounded=0;orthogonalLoop=1;jettySize=auto;html=1;endArrow=none;endFill=0;" edge="1" parent="1">
          <mxGeometry relative="1" as="geometry">
            <mxPoint x="2411.0049999999997" y="3989" as="sourcePoint" />
            <mxPoint x="2446" y="3989" as="targetPoint" />
          </mxGeometry>
        </mxCell>
        <mxCell id="U5VWjNL-1dkJV_Vy5fgO-91" value="" style="edgeStyle=orthogonalEdgeStyle;rounded=0;orthogonalLoop=1;jettySize=auto;html=1;" edge="1" parent="1" source="t8J576ol_tpwqE7DPTdl-224" target="U5VWjNL-1dkJV_Vy5fgO-90">
          <mxGeometry relative="1" as="geometry" />
        </mxCell>
        <mxCell id="t8J576ol_tpwqE7DPTdl-224" value="Changer le courant consommation max du moteur" style="whiteSpace=wrap;html=1;rounded=1;" vertex="1" parent="1">
          <mxGeometry x="2090.355" y="3959" width="120" height="60" as="geometry" />
        </mxCell>
        <mxCell id="U5VWjNL-1dkJV_Vy5fgO-62" value="" style="edgeStyle=orthogonalEdgeStyle;rounded=0;orthogonalLoop=1;jettySize=auto;html=1;endArrow=none;endFill=0;" edge="1" parent="1">
          <mxGeometry relative="1" as="geometry">
            <mxPoint x="2411.0049999999997" y="4149" as="sourcePoint" />
            <mxPoint x="2446" y="4149" as="targetPoint" />
          </mxGeometry>
        </mxCell>
        <mxCell id="U5VWjNL-1dkJV_Vy5fgO-93" value="" style="edgeStyle=orthogonalEdgeStyle;rounded=0;orthogonalLoop=1;jettySize=auto;html=1;" edge="1" parent="1" source="t8J576ol_tpwqE7DPTdl-226" target="U5VWjNL-1dkJV_Vy5fgO-92">
          <mxGeometry relative="1" as="geometry" />
        </mxCell>
        <mxCell id="t8J576ol_tpwqE7DPTdl-226" value="Changer le nombre du division du de l&#39;encodeur" style="whiteSpace=wrap;html=1;rounded=1;" vertex="1" parent="1">
          <mxGeometry x="2090.355" y="4119" width="120" height="60" as="geometry" />
        </mxCell>
        <mxCell id="U5VWjNL-1dkJV_Vy5fgO-65" value="" style="edgeStyle=orthogonalEdgeStyle;rounded=0;orthogonalLoop=1;jettySize=auto;html=1;endArrow=none;endFill=0;" edge="1" parent="1">
          <mxGeometry relative="1" as="geometry">
            <mxPoint x="2411.0049999999997" y="4309" as="sourcePoint" />
            <mxPoint x="2446" y="4309" as="targetPoint" />
          </mxGeometry>
        </mxCell>
        <mxCell id="U5VWjNL-1dkJV_Vy5fgO-95" value="" style="edgeStyle=orthogonalEdgeStyle;rounded=0;orthogonalLoop=1;jettySize=auto;html=1;" edge="1" parent="1" source="t8J576ol_tpwqE7DPTdl-228" target="U5VWjNL-1dkJV_Vy5fgO-94">
          <mxGeometry relative="1" as="geometry" />
        </mxCell>
        <mxCell id="t8J576ol_tpwqE7DPTdl-228" value="Changer la direction du moteur" style="rounded=1;whiteSpace=wrap;html=1;" vertex="1" parent="1">
          <mxGeometry x="2090.355" y="4279" width="120" height="60" as="geometry" />
        </mxCell>
        <mxCell id="U5VWjNL-1dkJV_Vy5fgO-67" value="" style="edgeStyle=orthogonalEdgeStyle;rounded=0;orthogonalLoop=1;jettySize=auto;html=1;endArrow=none;endFill=0;" edge="1" parent="1">
          <mxGeometry relative="1" as="geometry">
            <mxPoint x="2411.0049999999997" y="4469" as="sourcePoint" />
            <mxPoint x="2446" y="4469" as="targetPoint" />
          </mxGeometry>
        </mxCell>
        <mxCell id="U5VWjNL-1dkJV_Vy5fgO-97" value="" style="edgeStyle=orthogonalEdgeStyle;rounded=0;orthogonalLoop=1;jettySize=auto;html=1;" edge="1" parent="1" source="t8J576ol_tpwqE7DPTdl-230" target="U5VWjNL-1dkJV_Vy5fgO-96">
          <mxGeometry relative="1" as="geometry" />
        </mxCell>
        <mxCell id="t8J576ol_tpwqE7DPTdl-230" value="Changer l&#39;état de la pin command" style="whiteSpace=wrap;html=1;rounded=1;" vertex="1" parent="1">
          <mxGeometry x="2090.355" y="4439" width="120" height="60" as="geometry" />
        </mxCell>
        <mxCell id="U5VWjNL-1dkJV_Vy5fgO-69" value="" style="edgeStyle=orthogonalEdgeStyle;rounded=0;orthogonalLoop=1;jettySize=auto;html=1;endArrow=none;endFill=0;" edge="1" parent="1">
          <mxGeometry relative="1" as="geometry">
            <mxPoint x="2411.0049999999997" y="4629" as="sourcePoint" />
            <mxPoint x="2446" y="4629" as="targetPoint" />
          </mxGeometry>
        </mxCell>
        <mxCell id="U5VWjNL-1dkJV_Vy5fgO-99" value="" style="edgeStyle=orthogonalEdgeStyle;rounded=0;orthogonalLoop=1;jettySize=auto;html=1;" edge="1" parent="1" source="t8J576ol_tpwqE7DPTdl-232" target="U5VWjNL-1dkJV_Vy5fgO-98">
          <mxGeometry relative="1" as="geometry" />
        </mxCell>
        <mxCell id="t8J576ol_tpwqE7DPTdl-232" value="Changer le auto ssd" style="whiteSpace=wrap;html=1;rounded=1;" vertex="1" parent="1">
          <mxGeometry x="2090.355" y="4599" width="120" height="60" as="geometry" />
        </mxCell>
        <mxCell id="U5VWjNL-1dkJV_Vy5fgO-71" value="" style="edgeStyle=orthogonalEdgeStyle;rounded=0;orthogonalLoop=1;jettySize=auto;html=1;endArrow=none;endFill=0;" edge="1" parent="1">
          <mxGeometry relative="1" as="geometry">
            <mxPoint x="2411.0049999999997" y="4789" as="sourcePoint" />
            <mxPoint x="2446" y="4789" as="targetPoint" />
          </mxGeometry>
        </mxCell>
        <mxCell id="U5VWjNL-1dkJV_Vy5fgO-101" value="" style="edgeStyle=orthogonalEdgeStyle;rounded=0;orthogonalLoop=1;jettySize=auto;html=1;" edge="1" parent="1" source="t8J576ol_tpwqE7DPTdl-234" target="U5VWjNL-1dkJV_Vy5fgO-100">
          <mxGeometry relative="1" as="geometry" />
        </mxCell>
        <mxCell id="t8J576ol_tpwqE7DPTdl-234" value="Changer le blocage du moteur" style="whiteSpace=wrap;html=1;rounded=1;" vertex="1" parent="1">
          <mxGeometry x="2090.355" y="4759" width="120" height="60" as="geometry" />
        </mxCell>
        <mxCell id="U5VWjNL-1dkJV_Vy5fgO-73" value="" style="edgeStyle=orthogonalEdgeStyle;rounded=0;orthogonalLoop=1;jettySize=auto;html=1;endArrow=none;endFill=0;" edge="1" parent="1">
          <mxGeometry relative="1" as="geometry">
            <mxPoint x="2411.0049999999997" y="4949" as="sourcePoint" />
            <mxPoint x="2445" y="4949" as="targetPoint" />
          </mxGeometry>
        </mxCell>
        <mxCell id="U5VWjNL-1dkJV_Vy5fgO-113" value="" style="edgeStyle=orthogonalEdgeStyle;rounded=0;orthogonalLoop=1;jettySize=auto;html=1;" edge="1" parent="1" source="t8J576ol_tpwqE7DPTdl-236" target="U5VWjNL-1dkJV_Vy5fgO-112">
          <mxGeometry relative="1" as="geometry" />
        </mxCell>
        <mxCell id="t8J576ol_tpwqE7DPTdl-236" value="Changer la subdivision interpolation" style="whiteSpace=wrap;html=1;rounded=1;" vertex="1" parent="1">
          <mxGeometry x="2090.355" y="4919" width="120" height="60" as="geometry" />
        </mxCell>
        <mxCell id="U5VWjNL-1dkJV_Vy5fgO-75" value="" style="edgeStyle=orthogonalEdgeStyle;rounded=0;orthogonalLoop=1;jettySize=auto;html=1;endArrow=none;endFill=0;" edge="1" parent="1">
          <mxGeometry relative="1" as="geometry">
            <mxPoint x="2411.0049999999997" y="5109" as="sourcePoint" />
            <mxPoint x="2446" y="5108" as="targetPoint" />
          </mxGeometry>
        </mxCell>
        <mxCell id="U5VWjNL-1dkJV_Vy5fgO-103" value="" style="edgeStyle=orthogonalEdgeStyle;rounded=0;orthogonalLoop=1;jettySize=auto;html=1;" edge="1" parent="1" source="t8J576ol_tpwqE7DPTdl-238" target="U5VWjNL-1dkJV_Vy5fgO-102">
          <mxGeometry relative="1" as="geometry" />
        </mxCell>
        <mxCell id="t8J576ol_tpwqE7DPTdl-238" value="Changer la vitesse de communication du l&#39;UART" style="whiteSpace=wrap;html=1;rounded=1;" vertex="1" parent="1">
          <mxGeometry x="2090.355" y="5079" width="120" height="60" as="geometry" />
        </mxCell>
        <mxCell id="U5VWjNL-1dkJV_Vy5fgO-81" value="" style="edgeStyle=orthogonalEdgeStyle;rounded=0;orthogonalLoop=1;jettySize=auto;html=1;endArrow=none;endFill=0;" edge="1" parent="1">
          <mxGeometry relative="1" as="geometry">
            <mxPoint x="2411.0049999999997" y="5269" as="sourcePoint" />
            <mxPoint x="2446" y="5268" as="targetPoint" />
          </mxGeometry>
        </mxCell>
        <mxCell id="U5VWjNL-1dkJV_Vy5fgO-105" value="" style="edgeStyle=orthogonalEdgeStyle;rounded=0;orthogonalLoop=1;jettySize=auto;html=1;" edge="1" parent="1" source="t8J576ol_tpwqE7DPTdl-240" target="U5VWjNL-1dkJV_Vy5fgO-104">
          <mxGeometry relative="1" as="geometry" />
        </mxCell>
        <mxCell id="t8J576ol_tpwqE7DPTdl-240" value="Changer l&#39;adresse de l&#39;UART" style="whiteSpace=wrap;html=1;rounded=1;" vertex="1" parent="1">
          <mxGeometry x="2090.355" y="5239" width="120" height="60" as="geometry" />
        </mxCell>
        <mxCell id="U5VWjNL-1dkJV_Vy5fgO-79" value="" style="edgeStyle=orthogonalEdgeStyle;rounded=0;orthogonalLoop=1;jettySize=auto;html=1;endArrow=none;endFill=0;" edge="1" parent="1">
          <mxGeometry relative="1" as="geometry">
            <mxPoint x="2411.0049999999997" y="5429" as="sourcePoint" />
            <mxPoint x="2446" y="5429" as="targetPoint" />
          </mxGeometry>
        </mxCell>
        <mxCell id="U5VWjNL-1dkJV_Vy5fgO-111" value="" style="edgeStyle=orthogonalEdgeStyle;rounded=0;orthogonalLoop=1;jettySize=auto;html=1;" edge="1" parent="1" source="t8J576ol_tpwqE7DPTdl-242" target="U5VWjNL-1dkJV_Vy5fgO-110">
          <mxGeometry relative="1" as="geometry" />
        </mxCell>
        <mxCell id="t8J576ol_tpwqE7DPTdl-242" value="restaurer les paramètre par défaut" style="whiteSpace=wrap;html=1;rounded=1;" vertex="1" parent="1">
          <mxGeometry x="2090.355" y="5399" width="120" height="60" as="geometry" />
        </mxCell>
        <mxCell id="U5VWjNL-1dkJV_Vy5fgO-119" value="" style="edgeStyle=orthogonalEdgeStyle;rounded=0;orthogonalLoop=1;jettySize=auto;html=1;" edge="1" parent="1" source="t8J576ol_tpwqE7DPTdl-244" target="U5VWjNL-1dkJV_Vy5fgO-118">
          <mxGeometry relative="1" as="geometry" />
        </mxCell>
        <mxCell id="t8J576ol_tpwqE7DPTdl-244" value="Activer et selection de le mode de retour zero" style="whiteSpace=wrap;html=1;rounded=1;" vertex="1" parent="1">
          <mxGeometry x="2090.355" y="5559" width="120" height="60" as="geometry" />
        </mxCell>
        <mxCell id="U5VWjNL-1dkJV_Vy5fgO-121" value="" style="edgeStyle=orthogonalEdgeStyle;rounded=0;orthogonalLoop=1;jettySize=auto;html=1;" edge="1" parent="1" source="t8J576ol_tpwqE7DPTdl-246" target="U5VWjNL-1dkJV_Vy5fgO-120">
          <mxGeometry relative="1" as="geometry" />
        </mxCell>
        <mxCell id="t8J576ol_tpwqE7DPTdl-246" value="Selectionner le point 0" style="whiteSpace=wrap;html=1;rounded=1;" vertex="1" parent="1">
          <mxGeometry x="2090.355" y="5719" width="120" height="60" as="geometry" />
        </mxCell>
        <mxCell id="U5VWjNL-1dkJV_Vy5fgO-123" value="" style="edgeStyle=orthogonalEdgeStyle;rounded=0;orthogonalLoop=1;jettySize=auto;html=1;" edge="1" parent="1" source="t8J576ol_tpwqE7DPTdl-248" target="U5VWjNL-1dkJV_Vy5fgO-122">
          <mxGeometry relative="1" as="geometry" />
        </mxCell>
        <mxCell id="t8J576ol_tpwqE7DPTdl-248" value="selectionner la vitesse du retour 0" style="whiteSpace=wrap;html=1;rounded=1;glass=0;" vertex="1" parent="1">
          <mxGeometry x="2090.355" y="5879" width="120" height="60" as="geometry" />
        </mxCell>
        <mxCell id="U5VWjNL-1dkJV_Vy5fgO-125" value="" style="edgeStyle=orthogonalEdgeStyle;rounded=0;orthogonalLoop=1;jettySize=auto;html=1;" edge="1" parent="1" source="t8J576ol_tpwqE7DPTdl-250" target="U5VWjNL-1dkJV_Vy5fgO-124">
          <mxGeometry relative="1" as="geometry" />
        </mxCell>
        <mxCell id="t8J576ol_tpwqE7DPTdl-250" value="selectionner la direction du retour 0" style="whiteSpace=wrap;html=1;rounded=1;" vertex="1" parent="1">
          <mxGeometry x="2090.355" y="6039" width="120" height="60" as="geometry" />
        </mxCell>
        <mxCell id="U5VWjNL-1dkJV_Vy5fgO-127" value="" style="edgeStyle=orthogonalEdgeStyle;rounded=0;orthogonalLoop=1;jettySize=auto;html=1;" edge="1" parent="1" source="t8J576ol_tpwqE7DPTdl-252" target="U5VWjNL-1dkJV_Vy5fgO-126">
          <mxGeometry relative="1" as="geometry" />
        </mxCell>
        <mxCell id="t8J576ol_tpwqE7DPTdl-252" value="Retouner au point 0" style="whiteSpace=wrap;html=1;rounded=1;" vertex="1" parent="1">
          <mxGeometry x="2090.355" y="6199" width="120" height="60" as="geometry" />
        </mxCell>
        <mxCell id="U5VWjNL-1dkJV_Vy5fgO-204" value="" style="edgeStyle=orthogonalEdgeStyle;rounded=0;orthogonalLoop=1;jettySize=auto;html=1;endArrow=none;endFill=0;strokeWidth=1;startSize=6;endSize=6;jumpSize=6;" edge="1" parent="1" source="t8J576ol_tpwqE7DPTdl-254">
          <mxGeometry relative="1" as="geometry">
            <mxPoint x="2250" y="6389" as="targetPoint" />
          </mxGeometry>
        </mxCell>
        <mxCell id="t8J576ol_tpwqE7DPTdl-254" value="Changer la valeur de KP du PID" style="whiteSpace=wrap;html=1;rounded=1;" vertex="1" parent="1">
          <mxGeometry x="2090.355" y="6359" width="120" height="60" as="geometry" />
        </mxCell>
        <mxCell id="U5VWjNL-1dkJV_Vy5fgO-206" value="" style="edgeStyle=orthogonalEdgeStyle;rounded=0;orthogonalLoop=1;jettySize=auto;html=1;endArrow=none;endFill=0;" edge="1" parent="1" source="t8J576ol_tpwqE7DPTdl-256">
          <mxGeometry relative="1" as="geometry">
            <mxPoint x="2250" y="6549" as="targetPoint" />
          </mxGeometry>
        </mxCell>
        <mxCell id="t8J576ol_tpwqE7DPTdl-256" value="Changer la valeur de KI du PID" style="whiteSpace=wrap;html=1;rounded=1;" vertex="1" parent="1">
          <mxGeometry x="2090.355" y="6519" width="120" height="60" as="geometry" />
        </mxCell>
        <mxCell id="U5VWjNL-1dkJV_Vy5fgO-208" value="" style="edgeStyle=orthogonalEdgeStyle;rounded=0;orthogonalLoop=1;jettySize=auto;html=1;endArrow=none;endFill=0;" edge="1" parent="1" source="t8J576ol_tpwqE7DPTdl-258">
          <mxGeometry relative="1" as="geometry">
            <mxPoint x="2250" y="6709" as="targetPoint" />
          </mxGeometry>
        </mxCell>
        <mxCell id="t8J576ol_tpwqE7DPTdl-258" value="Changer la valeur de KD du PID" style="whiteSpace=wrap;html=1;rounded=1;" vertex="1" parent="1">
          <mxGeometry x="2090.355" y="6679" width="120" height="60" as="geometry" />
        </mxCell>
        <mxCell id="U5VWjNL-1dkJV_Vy5fgO-209" value="" style="edgeStyle=orthogonalEdgeStyle;rounded=0;orthogonalLoop=1;jettySize=auto;html=1;endArrow=none;endFill=0;" edge="1" parent="1" source="t8J576ol_tpwqE7DPTdl-260" target="U5VWjNL-1dkJV_Vy5fgO-158">
          <mxGeometry relative="1" as="geometry" />
        </mxCell>
        <mxCell id="t8J576ol_tpwqE7DPTdl-260" value="Changer la valeur de l&#39;acceleration" style="whiteSpace=wrap;html=1;rounded=1;" vertex="1" parent="1">
          <mxGeometry x="2090.355" y="6839" width="120" height="60" as="geometry" />
        </mxCell>
        <mxCell id="U5VWjNL-1dkJV_Vy5fgO-167" value="" style="edgeStyle=orthogonalEdgeStyle;rounded=0;orthogonalLoop=1;jettySize=auto;html=1;" edge="1" parent="1" source="t8J576ol_tpwqE7DPTdl-262" target="U5VWjNL-1dkJV_Vy5fgO-166">
          <mxGeometry relative="1" as="geometry" />
        </mxCell>
        <mxCell id="t8J576ol_tpwqE7DPTdl-262" value="Changer la valeur du couple max" style="whiteSpace=wrap;html=1;rounded=1;" vertex="1" parent="1">
          <mxGeometry x="2090.355" y="6999" width="120" height="60" as="geometry" />
        </mxCell>
        <mxCell id="U5VWjNL-1dkJV_Vy5fgO-176" value="" style="edgeStyle=orthogonalEdgeStyle;rounded=0;orthogonalLoop=1;jettySize=auto;html=1;" edge="1" parent="1" source="t8J576ol_tpwqE7DPTdl-264" target="U5VWjNL-1dkJV_Vy5fgO-175">
          <mxGeometry relative="1" as="geometry" />
        </mxCell>
        <mxCell id="t8J576ol_tpwqE7DPTdl-264" value="Changer la valeur du pin activation" style="whiteSpace=wrap;html=1;rounded=1;" vertex="1" parent="1">
          <mxGeometry x="2092.57" y="7151.25" width="120" height="75.5" as="geometry" />
        </mxCell>
        <mxCell id="U5VWjNL-1dkJV_Vy5fgO-180" value="" style="edgeStyle=orthogonalEdgeStyle;rounded=0;orthogonalLoop=1;jettySize=auto;html=1;" edge="1" parent="1" source="t8J576ol_tpwqE7DPTdl-266" target="U5VWjNL-1dkJV_Vy5fgO-179">
          <mxGeometry relative="1" as="geometry" />
        </mxCell>
        <mxCell id="t8J576ol_tpwqE7DPTdl-266" value="Faire tourner le moteur en fonction d&#39;une direction et d&#39;une vitesse" style="whiteSpace=wrap;html=1;rounded=1;" vertex="1" parent="1">
          <mxGeometry x="2090.355" y="7319" width="120" height="60" as="geometry" />
        </mxCell>
        <mxCell id="U5VWjNL-1dkJV_Vy5fgO-227" value="" style="edgeStyle=orthogonalEdgeStyle;rounded=0;orthogonalLoop=1;jettySize=auto;html=1;" edge="1" parent="1" source="t8J576ol_tpwqE7DPTdl-268" target="U5VWjNL-1dkJV_Vy5fgO-226">
          <mxGeometry relative="1" as="geometry" />
        </mxCell>
        <mxCell id="t8J576ol_tpwqE7DPTdl-268" value="Stopper le moteur" style="whiteSpace=wrap;html=1;rounded=1;" vertex="1" parent="1">
          <mxGeometry x="2090.355" y="7479" width="120" height="60" as="geometry" />
        </mxCell>
        <mxCell id="U5VWjNL-1dkJV_Vy5fgO-188" value="" style="edgeStyle=orthogonalEdgeStyle;rounded=0;orthogonalLoop=1;jettySize=auto;html=1;" edge="1" parent="1" source="t8J576ol_tpwqE7DPTdl-270" target="U5VWjNL-1dkJV_Vy5fgO-187">
          <mxGeometry relative="1" as="geometry" />
        </mxCell>
        <mxCell id="t8J576ol_tpwqE7DPTdl-270" value="Faire tourner le moteur en fonction d&#39;une direction, d&#39;une vitesse et &#39;un nombre de pulsation" style="whiteSpace=wrap;html=1;rounded=1;" vertex="1" parent="1">
          <mxGeometry x="2092.57" y="7626.75" width="120" height="84.5" as="geometry" />
        </mxCell>
        <mxCell id="U5VWjNL-1dkJV_Vy5fgO-198" value="" style="edgeStyle=orthogonalEdgeStyle;rounded=0;orthogonalLoop=1;jettySize=auto;html=1;" edge="1" parent="1" source="t8J576ol_tpwqE7DPTdl-272" target="U5VWjNL-1dkJV_Vy5fgO-197">
          <mxGeometry relative="1" as="geometry" />
        </mxCell>
        <mxCell id="t8J576ol_tpwqE7DPTdl-272" value="Sauver la configuration du moteur" style="whiteSpace=wrap;html=1;rounded=1;" vertex="1" parent="1">
          <mxGeometry x="2090.355" y="7799" width="120" height="60" as="geometry" />
        </mxCell>
        <mxCell id="U5VWjNL-1dkJV_Vy5fgO-21" value="" style="edgeStyle=orthogonalEdgeStyle;rounded=0;orthogonalLoop=1;jettySize=auto;html=1;" edge="1" parent="1" source="U5VWjNL-1dkJV_Vy5fgO-15" target="U5VWjNL-1dkJV_Vy5fgO-20">
          <mxGeometry relative="1" as="geometry" />
        </mxCell>
        <mxCell id="U5VWjNL-1dkJV_Vy5fgO-15" value="Lire l&#39;octet 6&amp;nbsp;" style="whiteSpace=wrap;html=1;rounded=1;" vertex="1" parent="1">
          <mxGeometry x="1180" y="2536.75" width="120" height="23.5" as="geometry" />
        </mxCell>
        <mxCell id="U5VWjNL-1dkJV_Vy5fgO-22" value="" style="edgeStyle=orthogonalEdgeStyle;rounded=0;orthogonalLoop=1;jettySize=auto;html=1;" edge="1" parent="1" source="U5VWjNL-1dkJV_Vy5fgO-20" target="t8J576ol_tpwqE7DPTdl-135">
          <mxGeometry relative="1" as="geometry" />
        </mxCell>
        <mxCell id="U5VWjNL-1dkJV_Vy5fgO-20" value="L&#39;octet 6 et l&#39;octet qui determine l&#39;adresse du moteur&amp;nbsp;&lt;br&gt;Affecter cette vaeur au premier octet de la trame du moteur" style="whiteSpace=wrap;html=1;rounded=1;" vertex="1" parent="1">
          <mxGeometry x="1366" y="2500.69" width="120" height="94.62" as="geometry" />
        </mxCell>
        <mxCell id="U5VWjNL-1dkJV_Vy5fgO-33" value="" style="edgeStyle=orthogonalEdgeStyle;rounded=0;orthogonalLoop=1;jettySize=auto;html=1;" edge="1" parent="1" source="U5VWjNL-1dkJV_Vy5fgO-31" target="t8J576ol_tpwqE7DPTdl-137">
          <mxGeometry relative="1" as="geometry" />
        </mxCell>
        <mxCell id="U5VWjNL-1dkJV_Vy5fgO-31" value="L&#39;octet 5 est l&#39;octet qui determine l&#39;action à réaliser sur le moteur Affecter cette valeur aeu dexieme octet de la trame du moteur" style="whiteSpace=wrap;html=1;rounded=1;" vertex="1" parent="1">
          <mxGeometry x="1753" y="2496" width="120" height="105" as="geometry" />
        </mxCell>
        <mxCell id="U5VWjNL-1dkJV_Vy5fgO-48" value="" style="endArrow=none;html=1;rounded=0;" edge="1" parent="1">
          <mxGeometry width="50" height="50" relative="1" as="geometry">
            <mxPoint x="2250" y="3349" as="sourcePoint" />
            <mxPoint x="2250" y="2549" as="targetPoint" />
          </mxGeometry>
        </mxCell>
        <mxCell id="U5VWjNL-1dkJV_Vy5fgO-52" value="" style="edgeStyle=orthogonalEdgeStyle;rounded=0;orthogonalLoop=1;jettySize=auto;html=1;" edge="1" parent="1" source="U5VWjNL-1dkJV_Vy5fgO-50" target="U5VWjNL-1dkJV_Vy5fgO-51">
          <mxGeometry relative="1" as="geometry" />
        </mxCell>
        <mxCell id="U5VWjNL-1dkJV_Vy5fgO-50" value="La taille de la trame est de 3 octets" style="whiteSpace=wrap;html=1;rounded=1;" vertex="1" parent="1">
          <mxGeometry x="2290.355" y="3319" width="120" height="60" as="geometry" />
        </mxCell>
        <mxCell id="U5VWjNL-1dkJV_Vy5fgO-245" value="" style="edgeStyle=orthogonalEdgeStyle;rounded=0;orthogonalLoop=1;jettySize=auto;html=1;endArrow=none;endFill=0;" edge="1" parent="1" source="U5VWjNL-1dkJV_Vy5fgO-51">
          <mxGeometry relative="1" as="geometry">
            <mxPoint x="3095" y="3349" as="targetPoint" />
          </mxGeometry>
        </mxCell>
        <mxCell id="U5VWjNL-1dkJV_Vy5fgO-51" value="Le troisième octet de la trame est le checksum" style="whiteSpace=wrap;html=1;rounded=1;" vertex="1" parent="1">
          <mxGeometry x="2490.355" y="3319" width="120" height="60" as="geometry" />
        </mxCell>
        <mxCell id="U5VWjNL-1dkJV_Vy5fgO-83" value="" style="endArrow=none;html=1;rounded=0;" edge="1" parent="1">
          <mxGeometry width="50" height="50" relative="1" as="geometry">
            <mxPoint x="2446" y="5429" as="sourcePoint" />
            <mxPoint x="2446" y="3509" as="targetPoint" />
          </mxGeometry>
        </mxCell>
        <mxCell id="U5VWjNL-1dkJV_Vy5fgO-84" value="Affecter la valeur &quot;0x00&quot; à l&#39;octet 3&amp;nbsp;" style="whiteSpace=wrap;html=1;rounded=1;" vertex="1" parent="1">
          <mxGeometry x="2290.355" y="3479" width="120" height="60" as="geometry" />
        </mxCell>
        <mxCell id="U5VWjNL-1dkJV_Vy5fgO-86" value="Changer L&#39;angle de rotation du moteur" style="whiteSpace=wrap;html=1;rounded=1" vertex="1" parent="1">
          <mxGeometry x="2290.355" y="3639" width="120" height="60" as="geometry" />
        </mxCell>
        <mxCell id="U5VWjNL-1dkJV_Vy5fgO-88" value="Changer le mode de communication du moteur" style="whiteSpace=wrap;html=1;rounded=1;" vertex="1" parent="1">
          <mxGeometry x="2290.355" y="3799" width="120" height="60" as="geometry" />
        </mxCell>
        <mxCell id="U5VWjNL-1dkJV_Vy5fgO-90" value="Changer le courant consommation max du moteur" style="whiteSpace=wrap;html=1;rounded=1;" vertex="1" parent="1">
          <mxGeometry x="2290.355" y="3959" width="120" height="60" as="geometry" />
        </mxCell>
        <mxCell id="U5VWjNL-1dkJV_Vy5fgO-92" value="Changer le nombre du division du de l&#39;encodeur" style="whiteSpace=wrap;html=1;rounded=1;" vertex="1" parent="1">
          <mxGeometry x="2290.355" y="4119" width="120" height="60" as="geometry" />
        </mxCell>
        <mxCell id="U5VWjNL-1dkJV_Vy5fgO-94" value="Changer la direction du moteur" style="rounded=1;whiteSpace=wrap;html=1;" vertex="1" parent="1">
          <mxGeometry x="2290.355" y="4279" width="120" height="60" as="geometry" />
        </mxCell>
        <mxCell id="U5VWjNL-1dkJV_Vy5fgO-96" value="Changer l&#39;état de la pin command" style="whiteSpace=wrap;html=1;rounded=1;" vertex="1" parent="1">
          <mxGeometry x="2290.355" y="4439" width="120" height="60" as="geometry" />
        </mxCell>
        <mxCell id="U5VWjNL-1dkJV_Vy5fgO-98" value="Changer le auto ssd" style="whiteSpace=wrap;html=1;rounded=1;" vertex="1" parent="1">
          <mxGeometry x="2290.355" y="4599" width="120" height="60" as="geometry" />
        </mxCell>
        <mxCell id="U5VWjNL-1dkJV_Vy5fgO-100" value="Changer le blocage du moteur" style="whiteSpace=wrap;html=1;rounded=1;" vertex="1" parent="1">
          <mxGeometry x="2290.355" y="4759" width="120" height="60" as="geometry" />
        </mxCell>
        <mxCell id="U5VWjNL-1dkJV_Vy5fgO-102" value="Changer la vitesse de communication du l&#39;UART" style="whiteSpace=wrap;html=1;rounded=1;" vertex="1" parent="1">
          <mxGeometry x="2290.355" y="5079" width="120" height="60" as="geometry" />
        </mxCell>
        <mxCell id="U5VWjNL-1dkJV_Vy5fgO-104" value="Changer l&#39;adresse de l&#39;UART" style="whiteSpace=wrap;html=1;rounded=1;" vertex="1" parent="1">
          <mxGeometry x="2290.355" y="5239" width="120" height="60" as="geometry" />
        </mxCell>
        <mxCell id="U5VWjNL-1dkJV_Vy5fgO-110" value="restaurer les paramètre par défaut" style="whiteSpace=wrap;html=1;rounded=1;" vertex="1" parent="1">
          <mxGeometry x="2290.355" y="5399" width="120" height="60" as="geometry" />
        </mxCell>
        <mxCell id="U5VWjNL-1dkJV_Vy5fgO-112" value="Changer la subdivision interpolation" style="whiteSpace=wrap;html=1;rounded=1;" vertex="1" parent="1">
          <mxGeometry x="2290.355" y="4919" width="120" height="60" as="geometry" />
        </mxCell>
        <mxCell id="U5VWjNL-1dkJV_Vy5fgO-117" value="" style="edgeStyle=orthogonalEdgeStyle;rounded=0;orthogonalLoop=1;jettySize=auto;html=1;" edge="1" parent="1" source="U5VWjNL-1dkJV_Vy5fgO-115" target="U5VWjNL-1dkJV_Vy5fgO-116">
          <mxGeometry relative="1" as="geometry" />
        </mxCell>
        <mxCell id="U5VWjNL-1dkJV_Vy5fgO-115" value="La taille de la trame est de 4 octets" style="whiteSpace=wrap;html=1;rounded=1;" vertex="1" parent="1">
          <mxGeometry x="2490.35" y="6199" width="123.01" height="60" as="geometry" />
        </mxCell>
        <mxCell id="U5VWjNL-1dkJV_Vy5fgO-243" value="" style="edgeStyle=orthogonalEdgeStyle;rounded=0;orthogonalLoop=1;jettySize=auto;html=1;endArrow=none;endFill=0;" edge="1" parent="1" source="U5VWjNL-1dkJV_Vy5fgO-116">
          <mxGeometry relative="1" as="geometry">
            <mxPoint x="3095" y="6229" as="targetPoint" />
          </mxGeometry>
        </mxCell>
        <mxCell id="U5VWjNL-1dkJV_Vy5fgO-116" value="Le 4ème octet de la trame est le checksum" style="whiteSpace=wrap;html=1;rounded=1;" vertex="1" parent="1">
          <mxGeometry x="2693.36" y="6199" width="123.01" height="60" as="geometry" />
        </mxCell>
        <mxCell id="U5VWjNL-1dkJV_Vy5fgO-129" value="" style="edgeStyle=orthogonalEdgeStyle;rounded=0;orthogonalLoop=1;jettySize=auto;html=1;endArrow=none;endFill=0;" edge="1" parent="1" source="U5VWjNL-1dkJV_Vy5fgO-118">
          <mxGeometry relative="1" as="geometry">
            <mxPoint x="2446" y="5589" as="targetPoint" />
          </mxGeometry>
        </mxCell>
        <mxCell id="U5VWjNL-1dkJV_Vy5fgO-118" value="Activer et selection de le mode de retour zero" style="whiteSpace=wrap;html=1;rounded=1;" vertex="1" parent="1">
          <mxGeometry x="2290.355" y="5559" width="120" height="60" as="geometry" />
        </mxCell>
        <mxCell id="U5VWjNL-1dkJV_Vy5fgO-131" value="" style="edgeStyle=orthogonalEdgeStyle;rounded=0;orthogonalLoop=1;jettySize=auto;html=1;endArrow=none;endFill=0;" edge="1" parent="1" source="U5VWjNL-1dkJV_Vy5fgO-120">
          <mxGeometry relative="1" as="geometry">
            <mxPoint x="2446" y="5749" as="targetPoint" />
          </mxGeometry>
        </mxCell>
        <mxCell id="U5VWjNL-1dkJV_Vy5fgO-120" value="Selectionner le point 0" style="whiteSpace=wrap;html=1;rounded=1;" vertex="1" parent="1">
          <mxGeometry x="2290.355" y="5719" width="120" height="60" as="geometry" />
        </mxCell>
        <mxCell id="U5VWjNL-1dkJV_Vy5fgO-133" value="" style="edgeStyle=orthogonalEdgeStyle;rounded=0;orthogonalLoop=1;jettySize=auto;html=1;endArrow=none;endFill=0;" edge="1" parent="1" source="U5VWjNL-1dkJV_Vy5fgO-122">
          <mxGeometry relative="1" as="geometry">
            <mxPoint x="2446" y="5909" as="targetPoint" />
          </mxGeometry>
        </mxCell>
        <mxCell id="U5VWjNL-1dkJV_Vy5fgO-122" value="selectionner la vitesse du retour 0" style="whiteSpace=wrap;html=1;rounded=1;glass=0;" vertex="1" parent="1">
          <mxGeometry x="2290.355" y="5879" width="120" height="60" as="geometry" />
        </mxCell>
        <mxCell id="U5VWjNL-1dkJV_Vy5fgO-135" value="" style="edgeStyle=orthogonalEdgeStyle;rounded=0;orthogonalLoop=1;jettySize=auto;html=1;endArrow=none;endFill=0;" edge="1" parent="1" source="U5VWjNL-1dkJV_Vy5fgO-124">
          <mxGeometry relative="1" as="geometry">
            <mxPoint x="2446" y="6069" as="targetPoint" />
          </mxGeometry>
        </mxCell>
        <mxCell id="U5VWjNL-1dkJV_Vy5fgO-124" value="selectionner la direction du retour 0" style="whiteSpace=wrap;html=1;rounded=1;" vertex="1" parent="1">
          <mxGeometry x="2290.355" y="6039" width="120" height="60" as="geometry" />
        </mxCell>
        <mxCell id="U5VWjNL-1dkJV_Vy5fgO-212" value="" style="edgeStyle=orthogonalEdgeStyle;rounded=0;orthogonalLoop=1;jettySize=auto;html=1;" edge="1" parent="1" source="U5VWjNL-1dkJV_Vy5fgO-126">
          <mxGeometry relative="1" as="geometry">
            <mxPoint x="2490.355" y="6229" as="targetPoint" />
          </mxGeometry>
        </mxCell>
        <mxCell id="U5VWjNL-1dkJV_Vy5fgO-126" value="Retouner au point 0" style="whiteSpace=wrap;html=1;rounded=1;" vertex="1" parent="1">
          <mxGeometry x="2290.355" y="6199" width="120" height="60" as="geometry" />
        </mxCell>
        <mxCell id="U5VWjNL-1dkJV_Vy5fgO-139" value="" style="endArrow=none;html=1;rounded=0;" edge="1" parent="1">
          <mxGeometry width="50" height="50" relative="1" as="geometry">
            <mxPoint x="2446" y="6228" as="sourcePoint" />
            <mxPoint x="2446" y="5428" as="targetPoint" />
          </mxGeometry>
        </mxCell>
        <mxCell id="U5VWjNL-1dkJV_Vy5fgO-161" value="" style="edgeStyle=orthogonalEdgeStyle;rounded=0;orthogonalLoop=1;jettySize=auto;html=1;endArrow=none;endFill=0;" edge="1" parent="1" source="U5VWjNL-1dkJV_Vy5fgO-158">
          <mxGeometry relative="1" as="geometry">
            <mxPoint x="2449" y="6869" as="targetPoint" />
          </mxGeometry>
        </mxCell>
        <mxCell id="U5VWjNL-1dkJV_Vy5fgO-158" value="affecter la valeur sur les octets 3 et 4&amp;nbsp;&lt;br style=&quot;border-color: var(--border-color);&quot;&gt;valeur entre 0x0000 &amp;amp; 0xFFFF" style="whiteSpace=wrap;html=1;rounded=1;" vertex="1" parent="1">
          <mxGeometry x="2290.355" y="6839" width="120" height="60" as="geometry" />
        </mxCell>
        <mxCell id="U5VWjNL-1dkJV_Vy5fgO-215" value="" style="edgeStyle=orthogonalEdgeStyle;rounded=0;orthogonalLoop=1;jettySize=auto;html=1;" edge="1" parent="1" source="U5VWjNL-1dkJV_Vy5fgO-166" target="U5VWjNL-1dkJV_Vy5fgO-214">
          <mxGeometry relative="1" as="geometry" />
        </mxCell>
        <mxCell id="U5VWjNL-1dkJV_Vy5fgO-166" value="affecter la valeur sur les octets 3 et 4&amp;nbsp;&lt;br style=&quot;border-color: var(--border-color);&quot;&gt;valeur entre 0x0000 &amp;amp; 0x04B0" style="whiteSpace=wrap;html=1;rounded=1;" vertex="1" parent="1">
          <mxGeometry x="2290.355" y="6999" width="120" height="60" as="geometry" />
        </mxCell>
        <mxCell id="U5VWjNL-1dkJV_Vy5fgO-234" value="" style="edgeStyle=orthogonalEdgeStyle;rounded=0;orthogonalLoop=1;jettySize=auto;html=1;endArrow=none;endFill=0;" edge="1" parent="1" source="U5VWjNL-1dkJV_Vy5fgO-175">
          <mxGeometry relative="1" as="geometry">
            <mxPoint x="2453" y="7189" as="targetPoint" />
          </mxGeometry>
        </mxCell>
        <mxCell id="U5VWjNL-1dkJV_Vy5fgO-175" value="Changer la valeur du pin activation" style="whiteSpace=wrap;html=1;rounded=1;" vertex="1" parent="1">
          <mxGeometry x="2292.57" y="7151.25" width="120" height="75.5" as="geometry" />
        </mxCell>
        <mxCell id="U5VWjNL-1dkJV_Vy5fgO-232" value="" style="edgeStyle=orthogonalEdgeStyle;rounded=0;orthogonalLoop=1;jettySize=auto;html=1;" edge="1" parent="1" source="U5VWjNL-1dkJV_Vy5fgO-179">
          <mxGeometry relative="1" as="geometry">
            <mxPoint x="2490.36" y="7350" as="targetPoint" />
          </mxGeometry>
        </mxCell>
        <mxCell id="U5VWjNL-1dkJV_Vy5fgO-179" value="affecter&amp;nbsp; au 3ème octet de la trame la valeur de la vitesse de rotation et la direction&amp;nbsp;" style="whiteSpace=wrap;html=1;rounded=1;" vertex="1" parent="1">
          <mxGeometry x="2290.36" y="7308" width="120" height="84" as="geometry" />
        </mxCell>
        <mxCell id="U5VWjNL-1dkJV_Vy5fgO-190" value="" style="edgeStyle=orthogonalEdgeStyle;rounded=0;orthogonalLoop=1;jettySize=auto;html=1;" edge="1" parent="1" source="U5VWjNL-1dkJV_Vy5fgO-187" target="U5VWjNL-1dkJV_Vy5fgO-189">
          <mxGeometry relative="1" as="geometry" />
        </mxCell>
        <mxCell id="U5VWjNL-1dkJV_Vy5fgO-187" value="affecter&amp;nbsp; au 3ème octet de la trame la valeur de la vitesse de rotation et la direction&amp;nbsp;" style="whiteSpace=wrap;html=1;rounded=1;" vertex="1" parent="1">
          <mxGeometry x="2292.57" y="7626.75" width="120" height="84.5" as="geometry" />
        </mxCell>
        <mxCell id="U5VWjNL-1dkJV_Vy5fgO-192" value="" style="edgeStyle=orthogonalEdgeStyle;rounded=0;orthogonalLoop=1;jettySize=auto;html=1;" edge="1" parent="1" source="U5VWjNL-1dkJV_Vy5fgO-189">
          <mxGeometry relative="1" as="geometry">
            <mxPoint x="2692.57" y="7669" as="targetPoint" />
          </mxGeometry>
        </mxCell>
        <mxCell id="U5VWjNL-1dkJV_Vy5fgO-189" value="Affecter&amp;nbsp; aux octets 4, 5, 6, 7 de la trame la valeur du nombre de pulsation (angle a parcourir)" style="whiteSpace=wrap;html=1;rounded=1;" vertex="1" parent="1">
          <mxGeometry x="2492.57" y="7626.75" width="120" height="84.5" as="geometry" />
        </mxCell>
        <mxCell id="U5VWjNL-1dkJV_Vy5fgO-200" value="" style="edgeStyle=orthogonalEdgeStyle;rounded=0;orthogonalLoop=1;jettySize=auto;html=1;" edge="1" parent="1" source="U5VWjNL-1dkJV_Vy5fgO-197">
          <mxGeometry relative="1" as="geometry">
            <mxPoint x="2490.355" y="7829" as="targetPoint" />
          </mxGeometry>
        </mxCell>
        <mxCell id="U5VWjNL-1dkJV_Vy5fgO-197" value="affecter au 3ème octet soit la valeur pour sauvegarder ou pour effacer&amp;nbsp;" style="whiteSpace=wrap;html=1;rounded=1;" vertex="1" parent="1">
          <mxGeometry x="2290.355" y="7799" width="120" height="60" as="geometry" />
        </mxCell>
        <mxCell id="U5VWjNL-1dkJV_Vy5fgO-210" value="" style="endArrow=none;html=1;rounded=0;" edge="1" parent="1">
          <mxGeometry width="50" height="50" relative="1" as="geometry">
            <mxPoint x="2250" y="6389" as="sourcePoint" />
            <mxPoint x="2250" y="6869" as="targetPoint" />
          </mxGeometry>
        </mxCell>
        <mxCell id="U5VWjNL-1dkJV_Vy5fgO-213" value="" style="endArrow=none;html=1;rounded=0;" edge="1" parent="1">
          <mxGeometry width="50" height="50" relative="1" as="geometry">
            <mxPoint x="2449" y="7029" as="sourcePoint" />
            <mxPoint x="2449" y="6869" as="targetPoint" />
          </mxGeometry>
        </mxCell>
        <mxCell id="U5VWjNL-1dkJV_Vy5fgO-222" value="" style="edgeStyle=orthogonalEdgeStyle;rounded=0;orthogonalLoop=1;jettySize=auto;html=1;" edge="1" parent="1" source="U5VWjNL-1dkJV_Vy5fgO-214" target="U5VWjNL-1dkJV_Vy5fgO-221">
          <mxGeometry relative="1" as="geometry" />
        </mxCell>
        <mxCell id="U5VWjNL-1dkJV_Vy5fgO-214" value="La taille de la trame est de 5 octets" style="whiteSpace=wrap;html=1;rounded=1;" vertex="1" parent="1">
          <mxGeometry x="2490.355" y="6999" width="120" height="60" as="geometry" />
        </mxCell>
        <mxCell id="U5VWjNL-1dkJV_Vy5fgO-241" value="" style="edgeStyle=orthogonalEdgeStyle;rounded=0;orthogonalLoop=1;jettySize=auto;html=1;endArrow=none;endFill=0;" edge="1" parent="1" source="U5VWjNL-1dkJV_Vy5fgO-221">
          <mxGeometry relative="1" as="geometry">
            <mxPoint x="3095" y="7029" as="targetPoint" />
          </mxGeometry>
        </mxCell>
        <mxCell id="U5VWjNL-1dkJV_Vy5fgO-221" value="Le 5ème octet de la trame est le checksum" style="whiteSpace=wrap;html=1;rounded=1;" vertex="1" parent="1">
          <mxGeometry x="2690.355" y="6999" width="120" height="60" as="geometry" />
        </mxCell>
        <mxCell id="U5VWjNL-1dkJV_Vy5fgO-223" value="" style="edgeStyle=orthogonalEdgeStyle;rounded=0;orthogonalLoop=1;jettySize=auto;html=1;" edge="1" parent="1" source="U5VWjNL-1dkJV_Vy5fgO-224" target="U5VWjNL-1dkJV_Vy5fgO-225">
          <mxGeometry relative="1" as="geometry" />
        </mxCell>
        <mxCell id="U5VWjNL-1dkJV_Vy5fgO-224" value="La taille de la trame est de 4 octets" style="whiteSpace=wrap;html=1;rounded=1;" vertex="1" parent="1">
          <mxGeometry x="2490.355" y="7319.5" width="120" height="60" as="geometry" />
        </mxCell>
        <mxCell id="U5VWjNL-1dkJV_Vy5fgO-266" value="" style="edgeStyle=orthogonalEdgeStyle;rounded=0;orthogonalLoop=1;jettySize=auto;html=1;endArrow=none;endFill=0;" edge="1" parent="1" source="U5VWjNL-1dkJV_Vy5fgO-225">
          <mxGeometry relative="1" as="geometry">
            <mxPoint x="3095" y="7350" as="targetPoint" />
          </mxGeometry>
        </mxCell>
        <mxCell id="U5VWjNL-1dkJV_Vy5fgO-225" value="Le 4ème octet de la trame est le checksum" style="whiteSpace=wrap;html=1;rounded=1;" vertex="1" parent="1">
          <mxGeometry x="2690.355" y="7319.5" width="120" height="60" as="geometry" />
        </mxCell>
        <mxCell id="U5VWjNL-1dkJV_Vy5fgO-229" value="" style="edgeStyle=orthogonalEdgeStyle;rounded=0;orthogonalLoop=1;jettySize=auto;html=1;" edge="1" parent="1" source="U5VWjNL-1dkJV_Vy5fgO-226" target="U5VWjNL-1dkJV_Vy5fgO-228">
          <mxGeometry relative="1" as="geometry" />
        </mxCell>
        <mxCell id="U5VWjNL-1dkJV_Vy5fgO-226" value="La taille de la trame est de 3 octets" style="whiteSpace=wrap;html=1;rounded=1;" vertex="1" parent="1">
          <mxGeometry x="2290.355" y="7479" width="120" height="60" as="geometry" />
        </mxCell>
        <mxCell id="U5VWjNL-1dkJV_Vy5fgO-237" value="" style="edgeStyle=orthogonalEdgeStyle;rounded=0;orthogonalLoop=1;jettySize=auto;html=1;endArrow=none;endFill=0;" edge="1" parent="1" source="U5VWjNL-1dkJV_Vy5fgO-228">
          <mxGeometry relative="1" as="geometry">
            <mxPoint x="3095" y="7509" as="targetPoint" />
          </mxGeometry>
        </mxCell>
        <mxCell id="U5VWjNL-1dkJV_Vy5fgO-228" value="Le 3ème octet de la trame est le checksum" style="whiteSpace=wrap;html=1;rounded=1;" vertex="1" parent="1">
          <mxGeometry x="2490.355" y="7479" width="120" height="60" as="geometry" />
        </mxCell>
        <mxCell id="U5VWjNL-1dkJV_Vy5fgO-235" value="" style="endArrow=none;html=1;rounded=0;" edge="1" parent="1">
          <mxGeometry width="50" height="50" relative="1" as="geometry">
            <mxPoint x="2453" y="7350" as="sourcePoint" />
            <mxPoint x="2453" y="7189" as="targetPoint" />
          </mxGeometry>
        </mxCell>
        <mxCell id="U5VWjNL-1dkJV_Vy5fgO-246" value="" style="edgeStyle=orthogonalEdgeStyle;rounded=0;orthogonalLoop=1;jettySize=auto;html=1;" edge="1" parent="1" source="U5VWjNL-1dkJV_Vy5fgO-247" target="U5VWjNL-1dkJV_Vy5fgO-249">
          <mxGeometry relative="1" as="geometry" />
        </mxCell>
        <mxCell id="U5VWjNL-1dkJV_Vy5fgO-247" value="La taille de la trame est de 4 octets" style="whiteSpace=wrap;html=1;rounded=1;" vertex="1" parent="1">
          <mxGeometry x="2490.355" y="7799" width="120" height="60" as="geometry" />
        </mxCell>
        <mxCell id="U5VWjNL-1dkJV_Vy5fgO-248" value="" style="edgeStyle=orthogonalEdgeStyle;rounded=0;orthogonalLoop=1;jettySize=auto;html=1;endArrow=none;endFill=0;" edge="1" parent="1" source="U5VWjNL-1dkJV_Vy5fgO-249">
          <mxGeometry relative="1" as="geometry">
            <mxPoint x="3095" y="7829" as="targetPoint" />
          </mxGeometry>
        </mxCell>
        <mxCell id="U5VWjNL-1dkJV_Vy5fgO-249" value="Le 4ème octet de la trame est le checksum" style="whiteSpace=wrap;html=1;rounded=1;" vertex="1" parent="1">
          <mxGeometry x="2690.355" y="7799" width="120" height="60" as="geometry" />
        </mxCell>
        <mxCell id="U5VWjNL-1dkJV_Vy5fgO-262" value="" style="edgeStyle=orthogonalEdgeStyle;rounded=0;orthogonalLoop=1;jettySize=auto;html=1;" edge="1" parent="1" source="U5VWjNL-1dkJV_Vy5fgO-259" target="U5VWjNL-1dkJV_Vy5fgO-261">
          <mxGeometry relative="1" as="geometry" />
        </mxCell>
        <mxCell id="U5VWjNL-1dkJV_Vy5fgO-259" value="La taille de la trame est de 7 octets" style="whiteSpace=wrap;html=1;rounded=1;" vertex="1" parent="1">
          <mxGeometry x="2694.365" y="7642" width="120" height="60" as="geometry" />
        </mxCell>
        <mxCell id="U5VWjNL-1dkJV_Vy5fgO-264" value="" style="edgeStyle=orthogonalEdgeStyle;rounded=0;orthogonalLoop=1;jettySize=auto;html=1;endArrow=none;endFill=0;" edge="1" parent="1" source="U5VWjNL-1dkJV_Vy5fgO-261">
          <mxGeometry relative="1" as="geometry">
            <mxPoint x="3094.365" y="7672" as="targetPoint" />
          </mxGeometry>
        </mxCell>
        <mxCell id="U5VWjNL-1dkJV_Vy5fgO-261" value="Le 7ème octet de la trame est le checksum" style="whiteSpace=wrap;html=1;rounded=1;" vertex="1" parent="1">
          <mxGeometry x="2894.365" y="7642" width="120" height="60" as="geometry" />
        </mxCell>
        <mxCell id="U5VWjNL-1dkJV_Vy5fgO-267" value="" style="endArrow=none;html=1;rounded=0;" edge="1" parent="1">
          <mxGeometry width="50" height="50" relative="1" as="geometry">
            <mxPoint x="3095" y="7829" as="sourcePoint" />
            <mxPoint x="3095" y="3349" as="targetPoint" />
          </mxGeometry>
        </mxCell>
        <mxCell id="U5VWjNL-1dkJV_Vy5fgO-341" value="" style="edgeStyle=orthogonalEdgeStyle;rounded=0;orthogonalLoop=1;jettySize=auto;html=1;" edge="1" parent="1" source="U5VWjNL-1dkJV_Vy5fgO-268" target="U5VWjNL-1dkJV_Vy5fgO-340">
          <mxGeometry relative="1" as="geometry" />
        </mxCell>
        <mxCell id="U5VWjNL-1dkJV_Vy5fgO-268" value="Envoyer la trame composé au moteur&lt;br&gt;sur le port UART5" style="rounded=1;whiteSpace=wrap;html=1;" vertex="1" parent="1">
          <mxGeometry x="3035" y="7880" width="120" height="60" as="geometry" />
        </mxCell>
        <mxCell id="U5VWjNL-1dkJV_Vy5fgO-269" value="" style="endArrow=classic;html=1;rounded=0;entryX=0.5;entryY=0;entryDx=0;entryDy=0;" edge="1" parent="1" target="U5VWjNL-1dkJV_Vy5fgO-268">
          <mxGeometry width="50" height="50" relative="1" as="geometry">
            <mxPoint x="3095" y="7828" as="sourcePoint" />
            <mxPoint x="3104" y="7795" as="targetPoint" />
          </mxGeometry>
        </mxCell>
        <mxCell id="U5VWjNL-1dkJV_Vy5fgO-270" value="Oui" style="text;html=1;align=center;verticalAlign=middle;whiteSpace=wrap;rounded=0;" vertex="1" parent="1">
          <mxGeometry x="2005" y="2546" width="60" height="30" as="geometry" />
        </mxCell>
        <mxCell id="U5VWjNL-1dkJV_Vy5fgO-271" value="Oui" style="text;html=1;align=center;verticalAlign=middle;whiteSpace=wrap;rounded=0;" vertex="1" parent="1">
          <mxGeometry x="2005" y="3026" width="60" height="30" as="geometry" />
        </mxCell>
        <mxCell id="U5VWjNL-1dkJV_Vy5fgO-272" value="Oui" style="text;html=1;align=center;verticalAlign=middle;whiteSpace=wrap;rounded=0;" vertex="1" parent="1">
          <mxGeometry x="2005" y="2866" width="60" height="30" as="geometry" />
        </mxCell>
        <mxCell id="U5VWjNL-1dkJV_Vy5fgO-273" value="Oui" style="text;html=1;align=center;verticalAlign=middle;whiteSpace=wrap;rounded=0;" vertex="1" parent="1">
          <mxGeometry x="2005" y="2706" width="60" height="30" as="geometry" />
        </mxCell>
        <mxCell id="U5VWjNL-1dkJV_Vy5fgO-274" value="Oui" style="text;html=1;align=center;verticalAlign=middle;whiteSpace=wrap;rounded=0;" vertex="1" parent="1">
          <mxGeometry x="2005" y="3505" width="60" height="30" as="geometry" />
        </mxCell>
        <mxCell id="U5VWjNL-1dkJV_Vy5fgO-275" value="Oui" style="text;html=1;align=center;verticalAlign=middle;whiteSpace=wrap;rounded=0;" vertex="1" parent="1">
          <mxGeometry x="2005" y="3345" width="60" height="30" as="geometry" />
        </mxCell>
        <mxCell id="U5VWjNL-1dkJV_Vy5fgO-276" value="Oui" style="text;html=1;align=center;verticalAlign=middle;whiteSpace=wrap;rounded=0;" vertex="1" parent="1">
          <mxGeometry x="2005" y="3184" width="60" height="30" as="geometry" />
        </mxCell>
        <mxCell id="U5VWjNL-1dkJV_Vy5fgO-277" value="Oui" style="text;html=1;align=center;verticalAlign=middle;whiteSpace=wrap;rounded=0;" vertex="1" parent="1">
          <mxGeometry x="2002" y="3983" width="60" height="30" as="geometry" />
        </mxCell>
        <mxCell id="U5VWjNL-1dkJV_Vy5fgO-278" value="Oui" style="text;html=1;align=center;verticalAlign=middle;whiteSpace=wrap;rounded=0;" vertex="1" parent="1">
          <mxGeometry x="2005" y="3825" width="60" height="30" as="geometry" />
        </mxCell>
        <mxCell id="U5VWjNL-1dkJV_Vy5fgO-279" value="Oui" style="text;html=1;align=center;verticalAlign=middle;whiteSpace=wrap;rounded=0;" vertex="1" parent="1">
          <mxGeometry x="2002" y="3663" width="60" height="30" as="geometry" />
        </mxCell>
        <mxCell id="U5VWjNL-1dkJV_Vy5fgO-280" value="Oui" style="text;html=1;align=center;verticalAlign=middle;whiteSpace=wrap;rounded=0;" vertex="1" parent="1">
          <mxGeometry x="2002" y="4465" width="60" height="30" as="geometry" />
        </mxCell>
        <mxCell id="U5VWjNL-1dkJV_Vy5fgO-281" value="Oui" style="text;html=1;align=center;verticalAlign=middle;whiteSpace=wrap;rounded=0;" vertex="1" parent="1">
          <mxGeometry x="2002" y="4303" width="60" height="30" as="geometry" />
        </mxCell>
        <mxCell id="U5VWjNL-1dkJV_Vy5fgO-282" value="Oui" style="text;html=1;align=center;verticalAlign=middle;whiteSpace=wrap;rounded=0;" vertex="1" parent="1">
          <mxGeometry x="2002" y="4144" width="60" height="30" as="geometry" />
        </mxCell>
        <mxCell id="U5VWjNL-1dkJV_Vy5fgO-283" value="Oui" style="text;html=1;align=center;verticalAlign=middle;whiteSpace=wrap;rounded=0;" vertex="1" parent="1">
          <mxGeometry x="2005" y="4947" width="60" height="30" as="geometry" />
        </mxCell>
        <mxCell id="U5VWjNL-1dkJV_Vy5fgO-284" value="Oui" style="text;html=1;align=center;verticalAlign=middle;whiteSpace=wrap;rounded=0;" vertex="1" parent="1">
          <mxGeometry x="2005" y="4780" width="60" height="30" as="geometry" />
        </mxCell>
        <mxCell id="U5VWjNL-1dkJV_Vy5fgO-285" value="Oui" style="text;html=1;align=center;verticalAlign=middle;whiteSpace=wrap;rounded=0;" vertex="1" parent="1">
          <mxGeometry x="2004" y="4623" width="60" height="30" as="geometry" />
        </mxCell>
        <mxCell id="U5VWjNL-1dkJV_Vy5fgO-286" value="Oui" style="text;html=1;align=center;verticalAlign=middle;whiteSpace=wrap;rounded=0;" vertex="1" parent="1">
          <mxGeometry x="2005" y="5426" width="60" height="30" as="geometry" />
        </mxCell>
        <mxCell id="U5VWjNL-1dkJV_Vy5fgO-287" value="Oui" style="text;html=1;align=center;verticalAlign=middle;whiteSpace=wrap;rounded=0;" vertex="1" parent="1">
          <mxGeometry x="2005" y="5266" width="60" height="30" as="geometry" />
        </mxCell>
        <mxCell id="U5VWjNL-1dkJV_Vy5fgO-288" value="Oui" style="text;html=1;align=center;verticalAlign=middle;whiteSpace=wrap;rounded=0;" vertex="1" parent="1">
          <mxGeometry x="2004" y="5103" width="60" height="30" as="geometry" />
        </mxCell>
        <mxCell id="U5VWjNL-1dkJV_Vy5fgO-289" value="Oui" style="text;html=1;align=center;verticalAlign=middle;whiteSpace=wrap;rounded=0;" vertex="1" parent="1">
          <mxGeometry x="2002" y="5905" width="60" height="30" as="geometry" />
        </mxCell>
        <mxCell id="U5VWjNL-1dkJV_Vy5fgO-290" value="Oui" style="text;html=1;align=center;verticalAlign=middle;whiteSpace=wrap;rounded=0;" vertex="1" parent="1">
          <mxGeometry x="2004" y="5746" width="60" height="30" as="geometry" />
        </mxCell>
        <mxCell id="U5VWjNL-1dkJV_Vy5fgO-291" value="Oui" style="text;html=1;align=center;verticalAlign=middle;whiteSpace=wrap;rounded=0;" vertex="1" parent="1">
          <mxGeometry x="2004" y="5585" width="60" height="30" as="geometry" />
        </mxCell>
        <mxCell id="U5VWjNL-1dkJV_Vy5fgO-292" value="Oui" style="text;html=1;align=center;verticalAlign=middle;whiteSpace=wrap;rounded=0;" vertex="1" parent="1">
          <mxGeometry x="2004" y="6225" width="60" height="30" as="geometry" />
        </mxCell>
        <mxCell id="U5VWjNL-1dkJV_Vy5fgO-293" value="Oui" style="text;html=1;align=center;verticalAlign=middle;whiteSpace=wrap;rounded=0;" vertex="1" parent="1">
          <mxGeometry x="2005" y="6066" width="60" height="30" as="geometry" />
        </mxCell>
        <mxCell id="U5VWjNL-1dkJV_Vy5fgO-294" value="Oui" style="text;html=1;align=center;verticalAlign=middle;whiteSpace=wrap;rounded=0;" vertex="1" parent="1">
          <mxGeometry x="2002" y="6384" width="60" height="30" as="geometry" />
        </mxCell>
        <mxCell id="U5VWjNL-1dkJV_Vy5fgO-295" value="Oui" style="text;html=1;align=center;verticalAlign=middle;whiteSpace=wrap;rounded=0;" vertex="1" parent="1">
          <mxGeometry x="2002" y="6544" width="60" height="30" as="geometry" />
        </mxCell>
        <mxCell id="U5VWjNL-1dkJV_Vy5fgO-296" value="Oui" style="text;html=1;align=center;verticalAlign=middle;whiteSpace=wrap;rounded=0;" vertex="1" parent="1">
          <mxGeometry x="2004" y="6704" width="60" height="30" as="geometry" />
        </mxCell>
        <mxCell id="U5VWjNL-1dkJV_Vy5fgO-297" value="Oui" style="text;html=1;align=center;verticalAlign=middle;whiteSpace=wrap;rounded=0;" vertex="1" parent="1">
          <mxGeometry x="2005" y="6869" width="60" height="30" as="geometry" />
        </mxCell>
        <mxCell id="U5VWjNL-1dkJV_Vy5fgO-298" value="Oui" style="text;html=1;align=center;verticalAlign=middle;whiteSpace=wrap;rounded=0;" vertex="1" parent="1">
          <mxGeometry x="2008" y="7024" width="60" height="30" as="geometry" />
        </mxCell>
        <mxCell id="U5VWjNL-1dkJV_Vy5fgO-299" value="Oui" style="text;html=1;align=center;verticalAlign=middle;whiteSpace=wrap;rounded=0;" vertex="1" parent="1">
          <mxGeometry x="2002" y="7187" width="60" height="30" as="geometry" />
        </mxCell>
        <mxCell id="U5VWjNL-1dkJV_Vy5fgO-300" value="Oui" style="text;html=1;align=center;verticalAlign=middle;whiteSpace=wrap;rounded=0;" vertex="1" parent="1">
          <mxGeometry x="2005" y="7349" width="60" height="30" as="geometry" />
        </mxCell>
        <mxCell id="U5VWjNL-1dkJV_Vy5fgO-301" value="Oui" style="text;html=1;align=center;verticalAlign=middle;whiteSpace=wrap;rounded=0;" vertex="1" parent="1">
          <mxGeometry x="2005" y="7511" width="60" height="30" as="geometry" />
        </mxCell>
        <mxCell id="U5VWjNL-1dkJV_Vy5fgO-302" value="Oui" style="text;html=1;align=center;verticalAlign=middle;whiteSpace=wrap;rounded=0;" vertex="1" parent="1">
          <mxGeometry x="2004" y="7666" width="60" height="30" as="geometry" />
        </mxCell>
        <mxCell id="U5VWjNL-1dkJV_Vy5fgO-303" value="Oui" style="text;html=1;align=center;verticalAlign=middle;whiteSpace=wrap;rounded=0;" vertex="1" parent="1">
          <mxGeometry x="2002" y="7824" width="60" height="30" as="geometry" />
        </mxCell>
        <mxCell id="U5VWjNL-1dkJV_Vy5fgO-304" value="Non" style="text;html=1;align=center;verticalAlign=middle;whiteSpace=wrap;rounded=0;" vertex="1" parent="1">
          <mxGeometry x="1964.57" y="7863" width="60" height="30" as="geometry" />
        </mxCell>
        <mxCell id="U5VWjNL-1dkJV_Vy5fgO-305" value="Non" style="text;html=1;align=center;verticalAlign=middle;whiteSpace=wrap;rounded=0;" vertex="1" parent="1">
          <mxGeometry x="1962" y="7702" width="60" height="30" as="geometry" />
        </mxCell>
        <mxCell id="U5VWjNL-1dkJV_Vy5fgO-306" value="Non" style="text;html=1;align=center;verticalAlign=middle;whiteSpace=wrap;rounded=0;" vertex="1" parent="1">
          <mxGeometry x="1964.57" y="7541" width="60" height="30" as="geometry" />
        </mxCell>
        <mxCell id="U5VWjNL-1dkJV_Vy5fgO-307" value="Non" style="text;html=1;align=center;verticalAlign=middle;whiteSpace=wrap;rounded=0;" vertex="1" parent="1">
          <mxGeometry x="1962" y="7379.5" width="60" height="30" as="geometry" />
        </mxCell>
        <mxCell id="U5VWjNL-1dkJV_Vy5fgO-308" value="Non" style="text;html=1;align=center;verticalAlign=middle;whiteSpace=wrap;rounded=0;" vertex="1" parent="1">
          <mxGeometry x="1962" y="7220" width="60" height="30" as="geometry" />
        </mxCell>
        <mxCell id="U5VWjNL-1dkJV_Vy5fgO-309" value="Non" style="text;html=1;align=center;verticalAlign=middle;whiteSpace=wrap;rounded=0;" vertex="1" parent="1">
          <mxGeometry x="1962" y="6901" width="60" height="30" as="geometry" />
        </mxCell>
        <mxCell id="U5VWjNL-1dkJV_Vy5fgO-310" value="Non" style="text;html=1;align=center;verticalAlign=middle;whiteSpace=wrap;rounded=0;" vertex="1" parent="1">
          <mxGeometry x="1964.57" y="7063" width="60" height="30" as="geometry" />
        </mxCell>
        <mxCell id="U5VWjNL-1dkJV_Vy5fgO-311" value="Non" style="text;html=1;align=center;verticalAlign=middle;whiteSpace=wrap;rounded=0;" vertex="1" parent="1">
          <mxGeometry x="1962" y="6423" width="60" height="30" as="geometry" />
        </mxCell>
        <mxCell id="U5VWjNL-1dkJV_Vy5fgO-312" value="Non" style="text;html=1;align=center;verticalAlign=middle;whiteSpace=wrap;rounded=0;" vertex="1" parent="1">
          <mxGeometry x="1962" y="6579" width="60" height="30" as="geometry" />
        </mxCell>
        <mxCell id="U5VWjNL-1dkJV_Vy5fgO-313" value="Non" style="text;html=1;align=center;verticalAlign=middle;whiteSpace=wrap;rounded=0;" vertex="1" parent="1">
          <mxGeometry x="1962" y="6742" width="60" height="30" as="geometry" />
        </mxCell>
        <mxCell id="U5VWjNL-1dkJV_Vy5fgO-314" value="Non" style="text;html=1;align=center;verticalAlign=middle;whiteSpace=wrap;rounded=0;" vertex="1" parent="1">
          <mxGeometry x="1964.57" y="5939" width="60" height="30" as="geometry" />
        </mxCell>
        <mxCell id="U5VWjNL-1dkJV_Vy5fgO-315" value="Non" style="text;html=1;align=center;verticalAlign=middle;whiteSpace=wrap;rounded=0;" vertex="1" parent="1">
          <mxGeometry x="1962" y="6262" width="60" height="30" as="geometry" />
        </mxCell>
        <mxCell id="U5VWjNL-1dkJV_Vy5fgO-316" value="Non" style="text;html=1;align=center;verticalAlign=middle;whiteSpace=wrap;rounded=0;" vertex="1" parent="1">
          <mxGeometry x="1963" y="6101" width="60" height="30" as="geometry" />
        </mxCell>
        <mxCell id="U5VWjNL-1dkJV_Vy5fgO-317" value="Non" style="text;html=1;align=center;verticalAlign=middle;whiteSpace=wrap;rounded=0;" vertex="1" parent="1">
          <mxGeometry x="1962" y="5465" width="60" height="30" as="geometry" />
        </mxCell>
        <mxCell id="U5VWjNL-1dkJV_Vy5fgO-318" value="Non" style="text;html=1;align=center;verticalAlign=middle;whiteSpace=wrap;rounded=0;" vertex="1" parent="1">
          <mxGeometry x="1964.57" y="5624" width="60" height="30" as="geometry" />
        </mxCell>
        <mxCell id="U5VWjNL-1dkJV_Vy5fgO-319" value="Non" style="text;html=1;align=center;verticalAlign=middle;whiteSpace=wrap;rounded=0;" vertex="1" parent="1">
          <mxGeometry x="1962" y="5784" width="60" height="30" as="geometry" />
        </mxCell>
        <mxCell id="U5VWjNL-1dkJV_Vy5fgO-320" value="Non" style="text;html=1;align=center;verticalAlign=middle;whiteSpace=wrap;rounded=0;" vertex="1" parent="1">
          <mxGeometry x="1962" y="4984" width="60" height="30" as="geometry" />
        </mxCell>
        <mxCell id="U5VWjNL-1dkJV_Vy5fgO-321" value="Non" style="text;html=1;align=center;verticalAlign=middle;whiteSpace=wrap;rounded=0;" vertex="1" parent="1">
          <mxGeometry x="1962" y="5139" width="60" height="30" as="geometry" />
        </mxCell>
        <mxCell id="U5VWjNL-1dkJV_Vy5fgO-322" value="Non" style="text;html=1;align=center;verticalAlign=middle;whiteSpace=wrap;rounded=0;" vertex="1" parent="1">
          <mxGeometry x="1963" y="5303" width="60" height="30" as="geometry" />
        </mxCell>
        <mxCell id="U5VWjNL-1dkJV_Vy5fgO-323" value="Non" style="text;html=1;align=center;verticalAlign=middle;whiteSpace=wrap;rounded=0;" vertex="1" parent="1">
          <mxGeometry x="1963" y="4501" width="60" height="30" as="geometry" />
        </mxCell>
        <mxCell id="U5VWjNL-1dkJV_Vy5fgO-324" value="Non" style="text;html=1;align=center;verticalAlign=middle;whiteSpace=wrap;rounded=0;" vertex="1" parent="1">
          <mxGeometry x="1962" y="4661" width="60" height="30" as="geometry" />
        </mxCell>
        <mxCell id="U5VWjNL-1dkJV_Vy5fgO-325" value="Non" style="text;html=1;align=center;verticalAlign=middle;whiteSpace=wrap;rounded=0;" vertex="1" parent="1">
          <mxGeometry x="1963" y="4824" width="60" height="30" as="geometry" />
        </mxCell>
        <mxCell id="U5VWjNL-1dkJV_Vy5fgO-326" value="Non" style="text;html=1;align=center;verticalAlign=middle;whiteSpace=wrap;rounded=0;" vertex="1" parent="1">
          <mxGeometry x="1964.57" y="4342" width="60" height="30" as="geometry" />
        </mxCell>
        <mxCell id="U5VWjNL-1dkJV_Vy5fgO-327" value="Non" style="text;html=1;align=center;verticalAlign=middle;whiteSpace=wrap;rounded=0;" vertex="1" parent="1">
          <mxGeometry x="1963" y="4182" width="60" height="30" as="geometry" />
        </mxCell>
        <mxCell id="U5VWjNL-1dkJV_Vy5fgO-328" value="Non" style="text;html=1;align=center;verticalAlign=middle;whiteSpace=wrap;rounded=0;" vertex="1" parent="1">
          <mxGeometry x="1963" y="4019" width="60" height="30" as="geometry" />
        </mxCell>
        <mxCell id="U5VWjNL-1dkJV_Vy5fgO-329" value="Non" style="text;html=1;align=center;verticalAlign=middle;whiteSpace=wrap;rounded=0;" vertex="1" parent="1">
          <mxGeometry x="1962" y="3539" width="60" height="30" as="geometry" />
        </mxCell>
        <mxCell id="U5VWjNL-1dkJV_Vy5fgO-330" value="Non" style="text;html=1;align=center;verticalAlign=middle;whiteSpace=wrap;rounded=0;" vertex="1" parent="1">
          <mxGeometry x="1964" y="3699" width="60" height="30" as="geometry" />
        </mxCell>
        <mxCell id="U5VWjNL-1dkJV_Vy5fgO-331" value="Non" style="text;html=1;align=center;verticalAlign=middle;whiteSpace=wrap;rounded=0;" vertex="1" parent="1">
          <mxGeometry x="1965" y="3864" width="60" height="30" as="geometry" />
        </mxCell>
        <mxCell id="U5VWjNL-1dkJV_Vy5fgO-332" value="Non" style="text;html=1;align=center;verticalAlign=middle;whiteSpace=wrap;rounded=0;" vertex="1" parent="1">
          <mxGeometry x="1964" y="3059" width="60" height="30" as="geometry" />
        </mxCell>
        <mxCell id="U5VWjNL-1dkJV_Vy5fgO-333" value="Non" style="text;html=1;align=center;verticalAlign=middle;whiteSpace=wrap;rounded=0;" vertex="1" parent="1">
          <mxGeometry x="1964.57" y="3223" width="60" height="30" as="geometry" />
        </mxCell>
        <mxCell id="U5VWjNL-1dkJV_Vy5fgO-334" value="Non" style="text;html=1;align=center;verticalAlign=middle;whiteSpace=wrap;rounded=0;" vertex="1" parent="1">
          <mxGeometry x="1964.57" y="3384" width="60" height="30" as="geometry" />
        </mxCell>
        <mxCell id="U5VWjNL-1dkJV_Vy5fgO-335" value="Non" style="text;html=1;align=center;verticalAlign=middle;whiteSpace=wrap;rounded=0;" vertex="1" parent="1">
          <mxGeometry x="1965" y="2582" width="60" height="30" as="geometry" />
        </mxCell>
        <mxCell id="U5VWjNL-1dkJV_Vy5fgO-336" value="Non" style="text;html=1;align=center;verticalAlign=middle;whiteSpace=wrap;rounded=0;" vertex="1" parent="1">
          <mxGeometry x="1963" y="2743" width="60" height="30" as="geometry" />
        </mxCell>
        <mxCell id="U5VWjNL-1dkJV_Vy5fgO-337" value="Non" style="text;html=1;align=center;verticalAlign=middle;whiteSpace=wrap;rounded=0;" vertex="1" parent="1">
          <mxGeometry x="1962" y="2905" width="60" height="30" as="geometry" />
        </mxCell>
        <mxCell id="U5VWjNL-1dkJV_Vy5fgO-343" value="" style="edgeStyle=orthogonalEdgeStyle;rounded=0;orthogonalLoop=1;jettySize=auto;html=1;endArrow=none;endFill=0;" edge="1" parent="1" source="U5VWjNL-1dkJV_Vy5fgO-340">
          <mxGeometry relative="1" as="geometry">
            <mxPoint x="3095" y="8121" as="targetPoint" />
          </mxGeometry>
        </mxCell>
        <mxCell id="U5VWjNL-1dkJV_Vy5fgO-340" value="Remise à du buffer de transmission" style="rounded=1;whiteSpace=wrap;html=1;" vertex="1" parent="1">
          <mxGeometry x="3035" y="8020" width="120" height="60" as="geometry" />
        </mxCell>
        <mxCell id="U5VWjNL-1dkJV_Vy5fgO-344" value="" style="endArrow=none;html=1;rounded=0;" edge="1" parent="1">
          <mxGeometry width="50" height="50" relative="1" as="geometry">
            <mxPoint x="1979" y="8121" as="sourcePoint" />
            <mxPoint x="3095" y="8121" as="targetPoint" />
          </mxGeometry>
        </mxCell>
        <mxCell id="U5VWjNL-1dkJV_Vy5fgO-348" value="Fin de la fonction action sur le bras" style="rounded=1;whiteSpace=wrap;html=1;" vertex="1" parent="1">
          <mxGeometry x="963.81" y="8160" width="120" height="60" as="geometry" />
        </mxCell>
        <mxCell id="U5VWjNL-1dkJV_Vy5fgO-349" value="" style="endArrow=none;html=1;rounded=0;startArrow=classic;startFill=1;entryX=0.5;entryY=1;entryDx=0;entryDy=0;" edge="1" parent="1" target="t8J576ol_tpwqE7DPTdl-102">
          <mxGeometry width="50" height="50" relative="1" as="geometry">
            <mxPoint x="1023" y="8157" as="sourcePoint" />
            <mxPoint x="988" y="2604" as="targetPoint" />
          </mxGeometry>
        </mxCell>
        <mxCell id="U5VWjNL-1dkJV_Vy5fgO-350" value="" style="endArrow=none;html=1;rounded=0;" edge="1" parent="1">
          <mxGeometry width="50" height="50" relative="1" as="geometry">
            <mxPoint x="1023" y="8121" as="sourcePoint" />
            <mxPoint x="1979" y="8121" as="targetPoint" />
          </mxGeometry>
        </mxCell>
        <mxCell id="U5VWjNL-1dkJV_Vy5fgO-353" value="" style="edgeStyle=orthogonalEdgeStyle;rounded=0;orthogonalLoop=1;jettySize=auto;html=1;" edge="1" parent="1" source="U5VWjNL-1dkJV_Vy5fgO-351" target="U5VWjNL-1dkJV_Vy5fgO-352">
          <mxGeometry relative="1" as="geometry" />
        </mxCell>
        <mxCell id="U5VWjNL-1dkJV_Vy5fgO-351" value="Début de l&#39;action des LEDs" style="rounded=1;whiteSpace=wrap;html=1;" vertex="1" parent="1">
          <mxGeometry x="650" y="1175" width="120" height="60" as="geometry" />
        </mxCell>
        <mxCell id="U5VWjNL-1dkJV_Vy5fgO-355" value="" style="edgeStyle=orthogonalEdgeStyle;rounded=0;orthogonalLoop=1;jettySize=auto;html=1;" edge="1" parent="1" source="U5VWjNL-1dkJV_Vy5fgO-352" target="U5VWjNL-1dkJV_Vy5fgO-354">
          <mxGeometry relative="1" as="geometry" />
        </mxCell>
        <mxCell id="U5VWjNL-1dkJV_Vy5fgO-352" value="Traitement de la trame&amp;nbsp;" style="whiteSpace=wrap;html=1;rounded=1;" vertex="1" parent="1">
          <mxGeometry x="650" y="1315" width="120" height="60" as="geometry" />
        </mxCell>
        <mxCell id="U5VWjNL-1dkJV_Vy5fgO-357" value="" style="edgeStyle=orthogonalEdgeStyle;rounded=0;orthogonalLoop=1;jettySize=auto;html=1;" edge="1" parent="1" source="U5VWjNL-1dkJV_Vy5fgO-354" target="U5VWjNL-1dkJV_Vy5fgO-356">
          <mxGeometry relative="1" as="geometry" />
        </mxCell>
        <mxCell id="U5VWjNL-1dkJV_Vy5fgO-354" value="Affectation des valeurs dans le code" style="whiteSpace=wrap;html=1;rounded=1;" vertex="1" parent="1">
          <mxGeometry x="650" y="1455" width="120" height="60" as="geometry" />
        </mxCell>
        <mxCell id="U5VWjNL-1dkJV_Vy5fgO-359" value="" style="edgeStyle=orthogonalEdgeStyle;rounded=0;orthogonalLoop=1;jettySize=auto;html=1;" edge="1" parent="1" source="U5VWjNL-1dkJV_Vy5fgO-356" target="U5VWjNL-1dkJV_Vy5fgO-358">
          <mxGeometry relative="1" as="geometry" />
        </mxCell>
        <mxCell id="U5VWjNL-1dkJV_Vy5fgO-356" value="Transmission de la trame" style="whiteSpace=wrap;html=1;rounded=1;" vertex="1" parent="1">
          <mxGeometry x="650" y="1595" width="120" height="60" as="geometry" />
        </mxCell>
        <mxCell id="U5VWjNL-1dkJV_Vy5fgO-358" value="Fin de l&#39;action des Leds" style="whiteSpace=wrap;html=1;rounded=1;" vertex="1" parent="1">
          <mxGeometry x="650" y="1735" width="120" height="60" as="geometry" />
        </mxCell>
        <mxCell id="U5VWjNL-1dkJV_Vy5fgO-362" value="" style="edgeStyle=orthogonalEdgeStyle;rounded=0;orthogonalLoop=1;jettySize=auto;html=1;" edge="1" parent="1" source="U5VWjNL-1dkJV_Vy5fgO-360" target="U5VWjNL-1dkJV_Vy5fgO-361">
          <mxGeometry relative="1" as="geometry" />
        </mxCell>
        <mxCell id="U5VWjNL-1dkJV_Vy5fgO-360" value="Début de actions sur le bras" style="whiteSpace=wrap;html=1;rounded=1;" vertex="1" parent="1">
          <mxGeometry x="650" y="2376" width="120" height="60" as="geometry" />
        </mxCell>
        <mxCell id="U5VWjNL-1dkJV_Vy5fgO-364" value="" style="edgeStyle=orthogonalEdgeStyle;rounded=0;orthogonalLoop=1;jettySize=auto;html=1;" edge="1" parent="1" source="U5VWjNL-1dkJV_Vy5fgO-361" target="U5VWjNL-1dkJV_Vy5fgO-363">
          <mxGeometry relative="1" as="geometry" />
        </mxCell>
        <mxCell id="U5VWjNL-1dkJV_Vy5fgO-361" value="Traitement de la trame" style="whiteSpace=wrap;html=1;rounded=1;" vertex="1" parent="1">
          <mxGeometry x="650" y="2516" width="120" height="60" as="geometry" />
        </mxCell>
        <mxCell id="U5VWjNL-1dkJV_Vy5fgO-366" value="" style="edgeStyle=orthogonalEdgeStyle;rounded=0;orthogonalLoop=1;jettySize=auto;html=1;" edge="1" parent="1" source="U5VWjNL-1dkJV_Vy5fgO-363" target="U5VWjNL-1dkJV_Vy5fgO-365">
          <mxGeometry relative="1" as="geometry" />
        </mxCell>
        <mxCell id="U5VWjNL-1dkJV_Vy5fgO-363" value="Affectation des valeurs dans le code" style="whiteSpace=wrap;html=1;rounded=1;" vertex="1" parent="1">
          <mxGeometry x="650" y="2656" width="120" height="60" as="geometry" />
        </mxCell>
        <mxCell id="U5VWjNL-1dkJV_Vy5fgO-368" value="" style="edgeStyle=orthogonalEdgeStyle;rounded=0;orthogonalLoop=1;jettySize=auto;html=1;" edge="1" parent="1" source="U5VWjNL-1dkJV_Vy5fgO-365" target="U5VWjNL-1dkJV_Vy5fgO-367">
          <mxGeometry relative="1" as="geometry" />
        </mxCell>
        <mxCell id="U5VWjNL-1dkJV_Vy5fgO-365" value="Transmission de la trame" style="whiteSpace=wrap;html=1;rounded=1;" vertex="1" parent="1">
          <mxGeometry x="650" y="2796" width="120" height="60" as="geometry" />
        </mxCell>
        <mxCell id="U5VWjNL-1dkJV_Vy5fgO-367" value="Fin de l&#39;action sur le bras" style="whiteSpace=wrap;html=1;rounded=1;" vertex="1" parent="1">
          <mxGeometry x="650" y="2936" width="120" height="60" as="geometry" />
        </mxCell>
        <mxCell id="U5VWjNL-1dkJV_Vy5fgO-369" value="Oui" style="text;html=1;align=center;verticalAlign=middle;whiteSpace=wrap;rounded=0;" vertex="1" parent="1">
          <mxGeometry x="1070" y="2519" width="60" height="30" as="geometry" />
        </mxCell>
        <mxCell id="U5VWjNL-1dkJV_Vy5fgO-370" value="Non" style="text;html=1;align=center;verticalAlign=middle;whiteSpace=wrap;rounded=0;" vertex="1" parent="1">
          <mxGeometry x="1010" y="2589" width="60" height="30" as="geometry" />
        </mxCell>
        <mxCell id="fX_gD1YDC2tcjuMbH3MW-4" value="Initialisation" style="rounded=0;whiteSpace=wrap;html=1;" vertex="1" parent="1">
          <mxGeometry x="294" y="190" width="120" height="60" as="geometry" />
        </mxCell>
        <mxCell id="fX_gD1YDC2tcjuMbH3MW-5" value="Analyse du message" style="rounded=0;whiteSpace=wrap;html=1;" vertex="1" parent="1">
          <mxGeometry x="1180" y="167.5" width="120" height="60" as="geometry" />
        </mxCell>
        <mxCell id="fX_gD1YDC2tcjuMbH3MW-6" value="" style="ellipse;whiteSpace=wrap;html=1;aspect=fixed;" vertex="1" parent="1">
          <mxGeometry x="1006.5" y="245.5" width="7" height="7" as="geometry" />
        </mxCell>
        <mxCell id="fX_gD1YDC2tcjuMbH3MW-7" value="" style="ellipse;whiteSpace=wrap;html=1;aspect=fixed;" vertex="1" parent="1">
          <mxGeometry x="1436.5" y="246.5" width="7" height="7" as="geometry" />
        </mxCell>
        <mxCell id="fX_gD1YDC2tcjuMbH3MW-9" value="" style="endArrow=none;html=1;rounded=0;entryX=0.5;entryY=1;entryDx=0;entryDy=0;" edge="1" parent="1" target="fX_gD1YDC2tcjuMbH3MW-8">
          <mxGeometry width="50" height="50" relative="1" as="geometry">
            <mxPoint x="1645" y="760" as="sourcePoint" />
            <mxPoint x="1650" y="252.5" as="targetPoint" />
          </mxGeometry>
        </mxCell>
        <mxCell id="fX_gD1YDC2tcjuMbH3MW-8" value="" style="ellipse;whiteSpace=wrap;html=1;aspect=fixed;" vertex="1" parent="1">
          <mxGeometry x="1646.5" y="252.5" width="7" height="7" as="geometry" />
        </mxCell>
        <mxCell id="fX_gD1YDC2tcjuMbH3MW-10" value="" style="ellipse;whiteSpace=wrap;html=1;aspect=fixed;" vertex="1" parent="1">
          <mxGeometry x="1856.5" y="252.5" width="7" height="7" as="geometry" />
        </mxCell>
        <mxCell id="fX_gD1YDC2tcjuMbH3MW-12" value="" style="edgeStyle=none;rounded=0;orthogonalLoop=1;jettySize=auto;html=1;" edge="1" parent="1" source="MxBiDhXxKWsVpk-VD3PI-47" target="fX_gD1YDC2tcjuMbH3MW-11">
          <mxGeometry relative="1" as="geometry">
            <mxPoint x="2080" y="253" as="sourcePoint" />
            <mxPoint x="2080" y="339" as="targetPoint" />
          </mxGeometry>
        </mxCell>
        <mxCell id="fX_gD1YDC2tcjuMbH3MW-11" value="" style="ellipse;whiteSpace=wrap;html=1;aspect=fixed;" vertex="1" parent="1">
          <mxGeometry x="2076.5" y="252.5" width="7" height="7" as="geometry" />
        </mxCell>
        <mxCell id="fX_gD1YDC2tcjuMbH3MW-13" value="" style="ellipse;whiteSpace=wrap;html=1;aspect=fixed;" vertex="1" parent="1">
          <mxGeometry x="2076.5" y="448.75" width="7" height="7" as="geometry" />
        </mxCell>
        <mxCell id="fX_gD1YDC2tcjuMbH3MW-15" value="" style="endArrow=none;html=1;rounded=0;entryX=0.5;entryY=1;entryDx=0;entryDy=0;" edge="1" parent="1" target="fX_gD1YDC2tcjuMbH3MW-14">
          <mxGeometry width="50" height="50" relative="1" as="geometry">
            <mxPoint x="2080" y="760" as="sourcePoint" />
            <mxPoint x="2080" y="639" as="targetPoint" />
          </mxGeometry>
        </mxCell>
        <mxCell id="fX_gD1YDC2tcjuMbH3MW-14" value="" style="ellipse;whiteSpace=wrap;html=1;aspect=fixed;" vertex="1" parent="1">
          <mxGeometry x="2076.5" y="638.75" width="7" height="7" as="geometry" />
        </mxCell>
        <mxCell id="fX_gD1YDC2tcjuMbH3MW-16" value="" style="ellipse;whiteSpace=wrap;html=1;aspect=fixed;" vertex="1" parent="1">
          <mxGeometry x="1006.5" y="1395" width="7" height="7" as="geometry" />
        </mxCell>
        <mxCell id="fX_gD1YDC2tcjuMbH3MW-21" value="Remise à zéro du tableau de la réception&amp;nbsp;&lt;br&gt;réinitialisation de la communication UART" style="whiteSpace=wrap;html=1;rounded=1;" vertex="1" parent="1">
          <mxGeometry x="1083.81" y="825" width="120" height="85" as="geometry" />
        </mxCell>
        <mxCell id="fX_gD1YDC2tcjuMbH3MW-24" value="Réinitialisation de la valeur reçue" style="rounded=0;whiteSpace=wrap;html=1;" vertex="1" parent="1">
          <mxGeometry x="950" y="837.5" width="120" height="60" as="geometry" />
        </mxCell>
        <mxCell id="fX_gD1YDC2tcjuMbH3MW-25" value="Oui" style="text;html=1;align=center;verticalAlign=middle;whiteSpace=wrap;rounded=0;" vertex="1" parent="1">
          <mxGeometry x="1940" y="175" width="60" height="30" as="geometry" />
        </mxCell>
        <mxCell id="fX_gD1YDC2tcjuMbH3MW-28" value="actionneur&lt;br style=&quot;border-color: var(--border-color);&quot;&gt;&amp;nbsp;sélectionné&lt;br style=&quot;border-color: var(--border-color);&quot;&gt;&quot;Bras robot&quot;" style="whiteSpace=wrap;html=1;rounded=1;" vertex="1" parent="1">
          <mxGeometry x="2240" y="94" width="120" height="60" as="geometry" />
        </mxCell>
        <mxCell id="fX_gD1YDC2tcjuMbH3MW-36" value="Vérification de la trame&amp;nbsp;" style="rounded=1&#xa;;whiteSpace=wrap;html=1;" vertex="1" parent="1">
          <mxGeometry x="1181" y="256" width="120" height="60" as="geometry" />
        </mxCell>
        <mxCell id="fX_gD1YDC2tcjuMbH3MW-38" value="Sélection &quot;Bras Robot&quot;" style="shape=process;whiteSpace=wrap;html=1;backgroundOutline=1;" vertex="1" parent="1">
          <mxGeometry x="2240" y="167.5" width="120" height="60" as="geometry" />
        </mxCell>
        <mxCell id="fX_gD1YDC2tcjuMbH3MW-39" value="Fonction Bras Robot" style="shape=process;whiteSpace=wrap;html=1;backgroundOutline=1;" vertex="1" parent="1">
          <mxGeometry x="2420" y="167.5" width="120" height="60" as="geometry" />
        </mxCell>
        <mxCell id="fX_gD1YDC2tcjuMbH3MW-40" value="actionneur&lt;br style=&quot;border-color: var(--border-color);&quot;&gt;&amp;nbsp;sélectionné&lt;br style=&quot;border-color: var(--border-color);&quot;&gt;&quot;Anneau de leds&quot;" style="whiteSpace=wrap;html=1;rounded=1&#xa;;" vertex="1" parent="1">
          <mxGeometry x="2240" y="292" width="120" height="60" as="geometry" />
        </mxCell>
        <mxCell id="fX_gD1YDC2tcjuMbH3MW-41" value="Sélection &quot;Anneau LEDs&quot;" style="shape=process;whiteSpace=wrap;html=1;backgroundOutline=1;" vertex="1" parent="1">
          <mxGeometry x="2240" y="363.75" width="120" height="60" as="geometry" />
        </mxCell>
        <mxCell id="fX_gD1YDC2tcjuMbH3MW-43" value="Fonction Anneau LEDs" style="shape=process;whiteSpace=wrap;html=1;backgroundOutline=1;" vertex="1" parent="1">
          <mxGeometry x="2420" y="363.75" width="120" height="60" as="geometry" />
        </mxCell>
        <mxCell id="fX_gD1YDC2tcjuMbH3MW-44" value="Sélection &quot;Ecran&quot;" style="shape=process;whiteSpace=wrap;html=1;backgroundOutline=1;" vertex="1" parent="1">
          <mxGeometry x="2240" y="553.75" width="120" height="60" as="geometry" />
        </mxCell>
        <mxCell id="fX_gD1YDC2tcjuMbH3MW-45" value="actionneur&lt;br style=&quot;border-color: var(--border-color);&quot;&gt;&amp;nbsp;sélectionné&lt;br style=&quot;border-color: var(--border-color);&quot;&gt;&quot;Ecran&quot;" style="whiteSpace=wrap;html=1;rounded=1;" vertex="1" parent="1">
          <mxGeometry x="2240" y="484" width="120" height="60" as="geometry" />
        </mxCell>
        <mxCell id="fX_gD1YDC2tcjuMbH3MW-46" value="Fonction Ecran" style="shape=process;whiteSpace=wrap;html=1;backgroundOutline=1;" vertex="1" parent="1">
          <mxGeometry x="2420" y="555" width="120" height="60" as="geometry" />
        </mxCell>
      </root>
    </mxGraphModel>
  </diagram>
</mxfile>
